<svg width="288" height="30" viewBox="0 0 288 30" fill="none" xmlns="http://www.w3.org/2000/svg">
<rect width="288" height="30" rx="15" fill="#0971B3"/>
<path d="M71.4238 21V8.11523H80.7402V9.63574H73.1289V13.582H80.2568V15.0938H73.1289V19.4795H81.0391V21H71.4238ZM83.1924 21V11.666H84.6162V12.9932C85.3018 11.9678 86.292 11.4551 87.5869 11.4551C88.1494 11.4551 88.665 11.5576 89.1338 11.7627C89.6084 11.9619 89.9629 12.2256 90.1973 12.5537C90.4316 12.8818 90.5957 13.2715 90.6895 13.7227C90.748 14.0156 90.7773 14.5283 90.7773 15.2607V21H89.1953V15.3223C89.1953 14.6777 89.1338 14.1973 89.0107 13.8809C88.8877 13.5586 88.668 13.3037 88.3516 13.1162C88.041 12.9229 87.6748 12.8262 87.2529 12.8262C86.5791 12.8262 85.9961 13.04 85.5039 13.4678C85.0176 13.8955 84.7744 14.707 84.7744 15.9023V21H83.1924ZM96.666 19.585L96.8945 20.9824C96.4492 21.0762 96.0508 21.123 95.6992 21.123C95.125 21.123 94.6797 21.0322 94.3633 20.8506C94.0469 20.6689 93.8242 20.4316 93.6953 20.1387C93.5664 19.8398 93.502 19.2158 93.502 18.2666V12.8965H92.3418V11.666H93.502V9.35449L95.0752 8.40527V11.666H96.666V12.8965H95.0752V18.3545C95.0752 18.8057 95.1016 19.0957 95.1543 19.2246C95.2129 19.3535 95.3037 19.4561 95.4268 19.5322C95.5557 19.6084 95.7373 19.6465 95.9717 19.6465C96.1475 19.6465 96.3789 19.626 96.666 19.585ZM98.2041 21V11.666H99.6279V13.0811C99.9912 12.4189 100.325 11.9824 100.63 11.7715C100.94 11.5605 101.28 11.4551 101.649 11.4551C102.183 11.4551 102.725 11.625 103.275 11.9648L102.73 13.4326C102.344 13.2041 101.957 13.0898 101.57 13.0898C101.225 13.0898 100.914 13.1953 100.639 13.4062C100.363 13.6113 100.167 13.8984 100.05 14.2676C99.874 14.8301 99.7861 15.4453 99.7861 16.1133V21H98.2041ZM110.307 19.8486C109.721 20.3467 109.155 20.6982 108.61 20.9033C108.071 21.1084 107.491 21.2109 106.87 21.2109C105.845 21.2109 105.057 20.9619 104.506 20.4639C103.955 19.96 103.68 19.3184 103.68 18.5391C103.68 18.082 103.782 17.666 103.987 17.291C104.198 16.9102 104.471 16.6055 104.805 16.377C105.145 16.1484 105.525 15.9756 105.947 15.8584C106.258 15.7764 106.727 15.6973 107.354 15.6211C108.631 15.4688 109.571 15.2871 110.175 15.0762C110.181 14.8594 110.184 14.7217 110.184 14.6631C110.184 14.0186 110.034 13.5645 109.735 13.3008C109.331 12.9434 108.73 12.7646 107.934 12.7646C107.189 12.7646 106.639 12.8965 106.281 13.1602C105.93 13.418 105.669 13.8779 105.499 14.54L103.952 14.3291C104.093 13.667 104.324 13.1338 104.646 12.7295C104.969 12.3193 105.435 12.0059 106.044 11.7891C106.653 11.5664 107.359 11.4551 108.162 11.4551C108.959 11.4551 109.606 11.5488 110.104 11.7363C110.603 11.9238 110.969 12.1611 111.203 12.4482C111.438 12.7295 111.602 13.0869 111.695 13.5205C111.748 13.79 111.774 14.2764 111.774 14.9795V17.0889C111.774 18.5596 111.807 19.4912 111.871 19.8838C111.941 20.2705 112.076 20.6426 112.275 21H110.623C110.459 20.6719 110.354 20.2881 110.307 19.8486ZM110.175 16.3154C109.601 16.5498 108.739 16.749 107.591 16.9131C106.94 17.0068 106.48 17.1123 106.211 17.2295C105.941 17.3467 105.733 17.5195 105.587 17.748C105.44 17.9707 105.367 18.2197 105.367 18.4951C105.367 18.917 105.525 19.2686 105.842 19.5498C106.164 19.8311 106.633 19.9717 107.248 19.9717C107.857 19.9717 108.399 19.8398 108.874 19.5762C109.349 19.3066 109.697 18.9404 109.92 18.4775C110.09 18.1201 110.175 17.5928 110.175 16.8955V16.3154ZM114.218 21V11.666H115.642V13.0811C116.005 12.4189 116.339 11.9824 116.644 11.7715C116.954 11.5605 117.294 11.4551 117.663 11.4551C118.196 11.4551 118.738 11.625 119.289 11.9648L118.744 13.4326C118.357 13.2041 117.971 13.0898 117.584 13.0898C117.238 13.0898 116.928 13.1953 116.652 13.4062C116.377 13.6113 116.181 13.8984 116.063 14.2676C115.888 14.8301 115.8 15.4453 115.8 16.1133V21H114.218ZM131.33 17.5811L132.886 17.7832C132.716 18.8555 132.279 19.6963 131.576 20.3057C130.879 20.9092 130.021 21.2109 129.001 21.2109C127.724 21.2109 126.695 20.7949 125.916 19.9629C125.143 19.125 124.756 17.9268 124.756 16.3682C124.756 15.3604 124.923 14.4785 125.257 13.7227C125.591 12.9668 126.098 12.4014 126.777 12.0264C127.463 11.6455 128.207 11.4551 129.01 11.4551C130.023 11.4551 130.853 11.7129 131.497 12.2285C132.142 12.7383 132.555 13.4648 132.736 14.4082L131.198 14.6455C131.052 14.0186 130.791 13.5469 130.416 13.2305C130.047 12.9141 129.599 12.7559 129.071 12.7559C128.274 12.7559 127.627 13.043 127.129 13.6172C126.631 14.1855 126.382 15.0879 126.382 16.3242C126.382 17.5781 126.622 18.4893 127.103 19.0576C127.583 19.626 128.21 19.9102 128.983 19.9102C129.604 19.9102 130.123 19.7197 130.539 19.3389C130.955 18.958 131.219 18.3721 131.33 17.5811ZM133.65 16.333C133.65 14.6045 134.131 13.3242 135.092 12.4922C135.895 11.8008 136.873 11.4551 138.027 11.4551C139.311 11.4551 140.359 11.877 141.174 12.7207C141.988 13.5586 142.396 14.7188 142.396 16.2012C142.396 17.4023 142.214 18.3486 141.851 19.04C141.493 19.7256 140.969 20.2588 140.277 20.6396C139.592 21.0205 138.842 21.2109 138.027 21.2109C136.721 21.2109 135.663 20.792 134.854 19.9541C134.052 19.1162 133.65 17.9092 133.65 16.333ZM135.276 16.333C135.276 17.5283 135.537 18.4248 136.059 19.0225C136.58 19.6143 137.236 19.9102 138.027 19.9102C138.812 19.9102 139.466 19.6113 139.987 19.0137C140.509 18.416 140.77 17.5049 140.77 16.2803C140.77 15.126 140.506 14.2529 139.979 13.6611C139.457 13.0635 138.807 12.7646 138.027 12.7646C137.236 12.7646 136.58 13.0605 136.059 13.6523C135.537 14.2441 135.276 15.1377 135.276 16.333ZM144.259 21V11.666H145.674V12.9756C145.967 12.5186 146.356 12.1523 146.843 11.877C147.329 11.5957 147.883 11.4551 148.504 11.4551C149.195 11.4551 149.761 11.5986 150.2 11.8857C150.646 12.1729 150.959 12.5742 151.141 13.0898C151.879 12 152.84 11.4551 154.023 11.4551C154.949 11.4551 155.661 11.7129 156.159 12.2285C156.657 12.7383 156.906 13.5264 156.906 14.5928V21H155.333V15.1201C155.333 14.4873 155.28 14.0332 155.175 13.7578C155.075 13.4766 154.891 13.251 154.621 13.0811C154.352 12.9111 154.035 12.8262 153.672 12.8262C153.016 12.8262 152.471 13.0459 152.037 13.4854C151.604 13.9189 151.387 14.6162 151.387 15.5771V21H149.805V14.9355C149.805 14.2324 149.676 13.7051 149.418 13.3535C149.16 13.002 148.738 12.8262 148.152 12.8262C147.707 12.8262 147.294 12.9434 146.913 13.1777C146.538 13.4121 146.266 13.7549 146.096 14.2061C145.926 14.6572 145.841 15.3076 145.841 16.1572V21H144.259ZM164.14 21.6152L166.961 21.958C167.008 22.2861 167.116 22.5117 167.286 22.6348C167.521 22.8105 167.89 22.8984 168.394 22.8984C169.038 22.8984 169.521 22.8018 169.844 22.6084C170.061 22.4795 170.225 22.2715 170.336 21.9844C170.412 21.7793 170.45 21.4014 170.45 20.8506V19.4883C169.712 20.4961 168.78 21 167.655 21C166.401 21 165.408 20.4697 164.676 19.4092C164.102 18.5713 163.814 17.5283 163.814 16.2803C163.814 14.7158 164.189 13.5205 164.939 12.6943C165.695 11.8682 166.633 11.4551 167.752 11.4551C168.906 11.4551 169.858 11.9619 170.608 12.9756V11.666H172.92V20.042C172.92 21.1436 172.829 21.9668 172.647 22.5117C172.466 23.0566 172.211 23.4844 171.883 23.7949C171.555 24.1055 171.115 24.3486 170.564 24.5244C170.02 24.7002 169.328 24.7881 168.49 24.7881C166.908 24.7881 165.786 24.5156 165.124 23.9707C164.462 23.4316 164.131 22.7461 164.131 21.9141C164.131 21.832 164.134 21.7324 164.14 21.6152ZM166.346 16.1396C166.346 17.1299 166.536 17.8564 166.917 18.3193C167.304 18.7764 167.778 19.0049 168.341 19.0049C168.944 19.0049 169.454 18.7705 169.87 18.3018C170.286 17.8271 170.494 17.127 170.494 16.2012C170.494 15.2344 170.295 14.5166 169.896 14.0479C169.498 13.5791 168.994 13.3447 168.385 13.3447C167.793 13.3447 167.304 13.5762 166.917 14.0391C166.536 14.4961 166.346 15.1963 166.346 16.1396ZM174.801 16.2012C174.801 15.3809 175.003 14.5869 175.407 13.8193C175.812 13.0518 176.383 12.4658 177.121 12.0615C177.865 11.6572 178.694 11.4551 179.608 11.4551C181.021 11.4551 182.178 11.915 183.08 12.835C183.982 13.749 184.434 14.9062 184.434 16.3066C184.434 17.7188 183.977 18.8906 183.062 19.8223C182.154 20.748 181.009 21.2109 179.626 21.2109C178.771 21.2109 177.953 21.0176 177.174 20.6309C176.4 20.2441 175.812 19.6787 175.407 18.9346C175.003 18.1846 174.801 17.2734 174.801 16.2012ZM177.332 16.333C177.332 17.2588 177.552 17.9678 177.991 18.46C178.431 18.9521 178.973 19.1982 179.617 19.1982C180.262 19.1982 180.801 18.9521 181.234 18.46C181.674 17.9678 181.894 17.2529 181.894 16.3154C181.894 15.4014 181.674 14.6982 181.234 14.2061C180.801 13.7139 180.262 13.4678 179.617 13.4678C178.973 13.4678 178.431 13.7139 177.991 14.2061C177.552 14.6982 177.332 15.4072 177.332 16.333ZM188.942 21L185.181 11.666H187.773L189.531 16.4297L190.041 18.0205C190.176 17.6162 190.261 17.3496 190.296 17.2207C190.378 16.957 190.466 16.6934 190.56 16.4297L192.335 11.666H194.875L191.166 21H188.942ZM195.06 21V18.5303H197.529V21H195.06ZM199.964 21V8.11523H202.434V12.7559C203.195 11.8887 204.098 11.4551 205.141 11.4551C206.277 11.4551 207.218 11.8682 207.962 12.6943C208.706 13.5146 209.078 14.6953 209.078 16.2363C209.078 17.8301 208.697 19.0576 207.936 19.9189C207.18 20.7803 206.26 21.2109 205.176 21.2109C204.643 21.2109 204.115 21.0791 203.594 20.8154C203.078 20.5459 202.633 20.1504 202.258 19.6289V21H199.964ZM202.416 16.1309C202.416 17.0977 202.568 17.8125 202.873 18.2754C203.301 18.9316 203.869 19.2598 204.578 19.2598C205.123 19.2598 205.586 19.0283 205.967 18.5654C206.354 18.0967 206.547 17.3613 206.547 16.3594C206.547 15.293 206.354 14.5254 205.967 14.0566C205.58 13.582 205.085 13.3447 204.481 13.3447C203.89 13.3447 203.397 13.5762 203.005 14.0391C202.612 14.4961 202.416 15.1934 202.416 16.1309ZM213.438 21H210.968V11.666H213.262V12.9932C213.654 12.3662 214.006 11.9531 214.316 11.7539C214.633 11.5547 214.99 11.4551 215.389 11.4551C215.951 11.4551 216.493 11.6104 217.015 11.9209L216.25 14.0742C215.834 13.8047 215.447 13.6699 215.09 13.6699C214.744 13.6699 214.451 13.7666 214.211 13.96C213.971 14.1475 213.78 14.4902 213.64 14.9883C213.505 15.4863 213.438 16.5293 213.438 18.1172V21Z" fill="white"/>
</svg>
