<svg width="126" height="45" viewBox="0 0 126 45" fill="none" xmlns="http://www.w3.org/2000/svg">
<path fill-rule="evenodd" clip-rule="evenodd" d="M11.6634 34.8259C14.9918 34.8259 17.968 33.0787 19.946 30.3328V31.5465C19.946 38.1053 14.0075 38.73 12.9136 38.73C11.8197 38.73 9.31926 38.3717 8.3816 38.1053C7.44395 37.8389 4.31844 36.6998 4.31844 36.6998L4.00588 43.2587C4.00588 43.2587 7.09584 44.4066 10.5695 44.8203C13.9127 45.2185 17.6228 44.8909 18.6958 44.508C18.8832 44.4411 19.1027 44.3696 19.3474 44.29C21.9599 43.4394 27.4472 41.6529 27.4472 34.5136V10.4645H19.946V14.333C17.968 11.587 14.9918 9.83984 11.6634 9.83984C5.70809 9.83984 0.880371 15.4332 0.880371 22.3329C0.880371 29.2326 5.70809 34.8259 11.6634 34.8259ZM14.6326 28.267C17.3945 28.267 19.6334 25.6102 19.6334 22.3329C19.6334 19.0555 17.3945 16.3987 14.6326 16.3987C11.8707 16.3987 9.63181 19.0555 9.63181 22.3329C9.63181 25.6102 11.8707 28.267 14.6326 28.267Z" fill="#3580C1"/>
<path fill-rule="evenodd" clip-rule="evenodd" d="M96.5212 9.83852C93.4602 9.83852 90.6929 11.3102 88.7074 13.682V0.000270844H80.581V34.6934H88.0823V30.7927C90.0887 33.6367 93.1241 35.4492 96.5212 35.4492C102.563 35.4492 107.46 29.7161 107.46 22.6439C107.46 15.5717 102.563 9.83852 96.5212 9.83852ZM93.7082 16.085C90.9463 16.085 88.7074 18.9516 88.7074 22.4877C88.7074 26.0238 90.9463 28.8904 93.7082 28.8904C96.4701 28.8904 98.709 26.0238 98.709 22.4877C98.709 18.9516 96.4701 16.085 93.7082 16.085Z" fill="#3580C3"/>
<path fill-rule="evenodd" clip-rule="evenodd" d="M41.0433 35.138C50.2636 35.138 55.2644 29.4049 55.2644 22.3327C55.2644 15.2605 50.1073 9.52734 41.0433 9.52734C31.9794 9.52734 26.8223 15.2605 26.8223 22.3327C26.8223 29.4049 31.8231 35.138 41.0433 35.138ZM41.0433 29.2038C44.0641 29.2038 46.513 26.1275 46.513 22.3327C46.513 18.5378 44.0641 15.4615 41.0433 15.4615C38.0225 15.4615 35.5737 18.5378 35.5737 22.3327C35.5737 26.1275 38.0225 29.2038 41.0433 29.2038Z" fill="#FEB801"/>
<path fill-rule="evenodd" clip-rule="evenodd" d="M124.651 17.0204L125.12 10.4616C125.12 10.4616 122.775 8.43146 118.243 10.9301C117.101 11.5602 115.987 12.7863 114.962 14.2677V10.462H107.46V34.8234H114.962V34.823H115.899V25.297C115.899 25.297 115.431 20.456 118.087 18.1135C119.344 17.0056 120.568 16.8774 121.838 16.8642C123.253 16.8496 124.651 17.0204 124.651 17.0204Z" fill="#FBBA01"/>
<path fill-rule="evenodd" clip-rule="evenodd" d="M59.9525 10.6172H51.8262L60.7339 34.5101H63.2343H66.9849H69.4853L78.393 10.6172H70.2667L65.1096 28.1386L59.9525 10.6172Z" fill="#51B030"/>
<ellipse cx="75.8927" cy="30.7634" rx="4.06316" ry="4.06024" fill="#3580C1"/>
</svg>
