<svg width="137" height="57" viewBox="0 0 137 57" fill="none" xmlns="http://www.w3.org/2000/svg">
<path fill-rule="evenodd" clip-rule="evenodd" d="M74.605 46.512C75.4561 46.512 76.2768 46.3323 77.0238 46.003C78.247 46.5315 79.5957 46.8243 81.0123 46.8243C82.0072 46.8243 82.9686 46.6799 83.8765 46.4108C84.4517 46.5942 85.0646 46.6931 85.7006 46.6931H93.2018C94.0409 46.6931 94.8397 46.5209 95.5649 46.2098C97.4216 47 99.4639 47.4489 101.641 47.4489C104.359 47.4489 106.831 46.7864 108.995 45.6355C110.025 46.4028 111.281 46.8244 112.58 46.8243L121.019 46.8239C124.333 46.8237 127.019 44.1375 127.019 40.8239V31.298C127.019 31.1233 127.011 30.9488 126.996 30.7748L126.995 30.7516C126.992 30.7042 126.988 30.6079 126.987 30.4751C126.986 30.1987 127 29.8244 127.056 29.4338C127.091 29.1924 127.131 29.0055 127.169 28.8643C127.596 28.8657 128.048 28.8901 128.43 28.9198C128.636 28.9357 128.804 28.9518 128.915 28.9633C128.97 28.969 129.01 28.9734 129.032 28.9759L129.043 28.977L129.044 28.9772L129.045 28.9774L129.048 28.9778L129.051 28.9781C130.68 29.1747 132.318 28.6959 133.585 27.6529C134.853 26.6081 135.638 25.0885 135.755 23.4491L136.224 16.8903C136.359 15.0042 135.596 13.1649 134.167 11.927L130.268 16.4287C134.167 11.927 134.164 11.924 134.16 11.9209L134.153 11.9149L134.139 11.9025L134.109 11.8773C134.089 11.8602 134.068 11.8425 134.046 11.8244C134.001 11.7881 133.954 11.7498 133.903 11.7098C133.8 11.6299 133.683 11.5428 133.551 11.4511C133.287 11.2678 132.961 11.0644 132.573 10.8624C131.794 10.4567 130.765 10.0579 129.503 9.84403C127.329 9.47592 124.849 9.71731 122.183 10.8414C121.529 10.5967 120.821 10.4629 120.081 10.4629H112.58C111.236 10.4629 109.995 10.9049 108.995 11.6515C106.831 10.5007 104.359 9.83825 101.641 9.83825C101.025 9.83825 100.42 9.8743 99.8269 9.94394V6C99.8269 2.68629 97.1406 0 93.8269 0H85.7006C82.3869 0 79.7006 2.68629 79.7006 6V10.6191H75.3864C73.2354 10.6191 71.2921 11.7643 70.2293 13.5515C69.1664 11.7643 67.2232 10.6191 65.0722 10.6191H56.9459C56.1625 10.6191 55.399 10.772 54.693 11.0581C52.1143 10.0456 49.2359 9.52593 46.1628 9.52593C42.4635 9.52593 39.0909 10.2891 36.204 11.6906C35.1949 10.9204 33.9343 10.4629 32.5669 10.4629H25.0656C24.1948 10.4629 23.3673 10.6484 22.6205 10.9821C20.8281 10.251 18.8665 9.83825 16.783 9.83825C6.71548 9.83825 0 18.9772 0 28.3313C0 32.6454 1.42844 36.9138 3.95538 40.261C3.65714 40.9317 3.48073 41.66 3.44486 42.4127L3.13231 48.9715C3.00794 51.5814 4.58681 53.9716 7.03609 54.8815L9.12551 49.2571C7.03609 54.8815 7.03679 54.8818 7.0375 54.8821L7.04939 54.8865L7.06732 54.8931L7.1169 54.9111C7.15594 54.9253 7.20694 54.9436 7.26921 54.9655C7.39366 55.0094 7.56368 55.0682 7.77378 55.1379C8.19291 55.2769 8.77762 55.4615 9.4833 55.6595C10.8724 56.0494 12.8341 56.5211 14.9795 56.7766C17.0631 57.0248 19.1803 57.0412 20.9275 56.9467C22.433 56.8653 24.4013 56.6679 25.8322 56.1573C25.9238 56.1246 26.0555 56.0812 26.3245 55.9936L26.463 55.9487C27.7897 55.5188 30.7707 54.5528 33.3852 52.3278C35.3196 50.6817 36.9128 48.4825 37.8012 45.6878C40.3021 46.6318 43.116 47.1366 46.1628 47.1366C51.6559 47.1366 56.508 45.5187 60.1487 42.3857L60.2316 42.608C61.1067 44.9554 63.3483 46.512 65.8536 46.512H74.605ZM20.1559 16.4616C20.157 16.462 20.1582 16.4625 20.1594 16.4629C20.1582 16.4625 20.157 16.462 20.1559 16.4616ZM124.277 16.473C124.259 16.4814 124.24 16.4898 124.221 16.4983C124.24 16.4898 124.259 16.4814 124.277 16.473ZM19.7523 28.3971C19.5823 28.3971 19.4225 28.3719 19.2801 28.3313C19.4225 28.2907 19.5823 28.2655 19.7523 28.2655C19.9222 28.2655 20.082 28.2907 20.2244 28.3313C20.082 28.3719 19.9222 28.3971 19.7523 28.3971Z" fill="white"/>
<path fill-rule="evenodd" clip-rule="evenodd" d="M16.783 40.8259C20.1114 40.8259 23.0876 39.0787 25.0656 36.3328V37.5465C25.0656 44.1053 19.1272 44.73 18.0332 44.73C16.9393 44.73 14.4389 44.3717 13.5012 44.1053C12.5636 43.8389 9.43806 42.6998 9.43806 42.6998L9.12551 49.2587C9.12551 49.2587 12.2155 50.4066 15.6891 50.8203C19.0323 51.2185 22.7424 50.8909 23.8154 50.508C24.0028 50.4411 24.2223 50.3696 24.467 50.29C27.0795 49.4394 32.5669 47.6529 32.5669 40.5136V16.4645H25.0656V20.333C23.0876 17.587 20.1114 15.8398 16.783 15.8398C10.8277 15.8398 6 21.4332 6 28.3329C6 35.2326 10.8277 40.8259 16.783 40.8259ZM19.7523 34.267C22.5141 34.267 24.7531 31.6102 24.7531 28.3329C24.7531 25.0555 22.5141 22.3987 19.7523 22.3987C16.9904 22.3987 14.7514 25.0555 14.7514 28.3329C14.7514 31.6102 16.9904 34.267 19.7523 34.267Z" fill="#3580C1"/>
<path fill-rule="evenodd" clip-rule="evenodd" d="M101.641 15.8385C98.5798 15.8385 95.8125 17.3102 93.827 19.682V6.00027H85.7007V40.6934H93.2019V36.7927C95.2083 39.6367 98.2437 41.4492 101.641 41.4492C107.682 41.4492 112.58 35.7161 112.58 28.6439C112.58 21.5717 107.682 15.8385 101.641 15.8385ZM98.8278 22.085C96.0659 22.085 93.827 24.9516 93.827 28.4877C93.827 32.0238 96.0659 34.8904 98.8278 34.8904C101.59 34.8904 103.829 32.0238 103.829 28.4877C103.829 24.9516 101.59 22.085 98.8278 22.085Z" fill="#3580C3"/>
<path fill-rule="evenodd" clip-rule="evenodd" d="M46.163 41.138C55.3832 41.138 60.3841 35.4049 60.3841 28.3327C60.3841 21.2605 55.227 15.5273 46.163 15.5273C37.099 15.5273 31.9419 21.2605 31.9419 28.3327C31.9419 35.4049 36.9427 41.138 46.163 41.138ZM46.163 35.2038C49.1838 35.2038 51.6326 32.1275 51.6326 28.3327C51.6326 24.5378 49.1838 21.4615 46.163 21.4615C43.1422 21.4615 40.6933 24.5378 40.6933 28.3327C40.6933 32.1275 43.1422 35.2038 46.163 35.2038Z" fill="#FEB801"/>
<path fill-rule="evenodd" clip-rule="evenodd" d="M129.77 23.0204L130.239 16.4616C130.239 16.4616 127.895 14.4315 123.363 16.9301C122.22 17.5602 121.107 18.7863 120.081 20.2677V16.462H112.58V40.8234H120.081V40.823H121.019V31.297C121.019 31.297 120.55 26.456 123.207 24.1135C124.463 23.0056 125.687 22.8774 126.957 22.8642C128.373 22.8496 129.77 23.0204 129.77 23.0204Z" fill="#FBBA01"/>
<path fill-rule="evenodd" clip-rule="evenodd" d="M65.0721 16.6172H56.9458L65.8535 40.5101H68.3539H72.1045H74.6049L83.5126 16.6172H75.3863L70.2292 34.1386L65.0721 16.6172Z" fill="#51B030"/>
<ellipse cx="81.0124" cy="36.7634" rx="4.06316" ry="4.06024" fill="#3580C1"/>
</svg>
