<svg width="93" height="30" viewBox="0 0 93 30" fill="none" xmlns="http://www.w3.org/2000/svg">
<g opacity="0.5">
<path fill-rule="evenodd" clip-rule="evenodd" d="M66.4648 23.1548L79.6276 0.0234375L92.7904 23.1548H66.4648Z" fill="#E60000"/>
<path fill-rule="evenodd" clip-rule="evenodd" d="M24.9771 10.3381C24.6748 9.93689 24.2794 9.60644 23.7678 9.37041C23.2794 9.13437 22.7213 9.01636 22.1166 9.01636H11.7678C11.3492 9.01636 11.0236 8.87473 10.7911 8.56789C10.5585 8.28465 10.4887 7.9306 10.5818 7.50573L10.9073 6.01872C11.0004 5.59385 11.2329 5.2398 11.5818 4.93296C11.9073 4.64972 12.3027 4.5081 12.7213 4.5081H27.4887L28.4422 0.0234375H9.20967H9.18641C8.58176 0.0234375 7.97711 0.141455 7.39571 0.377489C6.81432 0.613524 6.27943 0.943973 5.79106 1.34523C5.30269 1.74649 4.88408 2.21856 4.5585 2.76144C4.20967 3.30432 3.97711 3.89441 3.86083 4.5081L2.9306 9.01636C2.79106 9.63005 2.79106 10.2201 2.90734 10.763C3.02362 11.3059 3.23292 11.778 3.5585 12.1792C3.88408 12.5805 4.27943 12.9109 4.76781 13.147C5.27943 13.383 5.81432 13.501 6.41897 13.501H16.7446C17.1632 13.501 17.4887 13.6426 17.7213 13.9495C17.9306 14.2327 18.0004 14.5868 17.9073 15.0116L17.6283 16.4987C17.5352 16.9235 17.3027 17.2776 16.9539 17.5608C16.605 17.8677 16.2329 18.0093 15.8143 18.0093H1.00036L0.046875 22.4939H19.2794C19.9073 22.4939 20.512 22.3759 21.0934 22.1399C21.6748 21.9038 22.2097 21.5734 22.698 21.1721C23.1864 20.7709 23.5818 20.2988 23.9306 19.7559C24.2794 19.1894 24.512 18.623 24.6515 17.9857L25.605 13.501C25.7213 12.8637 25.7213 12.2972 25.605 11.7308C25.4887 11.1879 25.2794 10.7158 24.9771 10.3381Z" fill="white"/>
<path fill-rule="evenodd" clip-rule="evenodd" d="M50.8143 13.5014L51.7678 8.99316H36.9771L36.0469 13.5014H50.8143Z" fill="white"/>
<path fill-rule="evenodd" clip-rule="evenodd" d="M34.1856 17.561C33.9763 17.2777 33.9066 16.9237 33.9996 16.4988L34.6275 13.5012L36.2089 5.97168C36.3019 5.54681 36.5345 5.21636 36.8601 4.90952C37.2089 4.62628 37.581 4.48466 37.9996 4.48466H52.7438L53.6973 0H34.488H34.4647C33.8601 0 33.2787 0.118017 32.6973 0.354052C32.0926 0.590087 31.5577 0.920535 31.0694 1.32179C30.6042 1.72305 30.1856 2.19512 29.8368 2.738C29.5112 3.28088 29.2787 3.87097 29.1391 4.48466L26.2787 18.0094C26.1391 18.6231 26.1391 19.2132 26.2554 19.7561C26.3717 20.299 26.581 20.771 26.9066 21.1723C27.2089 21.5736 27.6275 21.8804 28.1159 22.1164C28.6042 22.3525 29.1624 22.4705 29.767 22.4705H48.9066L49.8601 17.9858H35.1391C34.7205 18.0094 34.4182 17.8678 34.1856 17.561Z" fill="white"/>
<path fill-rule="evenodd" clip-rule="evenodd" d="M62.2328 8.99316L61.2793 13.5014H71.0933L73.6514 8.99316H62.2328Z" fill="white"/>
<path fill-rule="evenodd" clip-rule="evenodd" d="M59.6981 0H59.6749C59.0702 0 58.4656 0.118017 57.8842 0.354052C57.3028 0.590087 56.7679 0.920535 56.2795 1.32179C55.7912 1.72305 55.3725 2.19512 55.047 2.738C54.6981 3.30448 54.4656 3.87097 54.3493 4.50826L50.5586 22.4941H57.9539L61.3958 5.97168C61.4888 5.54681 61.7214 5.19276 62.0702 4.90952C62.3958 4.62628 62.7912 4.48466 63.2098 4.48466H76.2098L78.7679 0H59.6981Z" fill="white"/>
<path d="M1.431 28.739C2.4075 28.739 2.898 28.253 2.898 27.677C2.898 26.516 1.1565 26.831 1.1565 26.453C1.1565 26.345 1.2555 26.255 1.566 26.255C1.8405 26.255 2.133 26.3315 2.4435 26.489L2.763 25.7195C2.4345 25.535 1.998 25.445 1.575 25.445C0.5985 25.445 0.108 25.922 0.108 26.507C0.108 27.6815 1.8495 27.362 1.8495 27.758C1.8495 27.866 1.7415 27.929 1.44 27.929C1.0935 27.929 0.6975 27.8165 0.4005 27.641L0.0585 28.415C0.3735 28.6085 0.9045 28.739 1.431 28.739ZM5.80152 27.434C5.80152 26.6015 5.17602 26.1605 4.44702 26.1605C3.65052 26.1605 3.05202 26.687 3.05202 27.434C3.05202 28.1675 3.63702 28.712 4.54152 28.712C5.03202 28.712 5.37852 28.577 5.61702 28.316L5.08602 27.7805C4.92402 27.902 4.79802 27.9605 4.57302 27.9605C4.32102 27.9605 4.15002 27.8615 4.07802 27.6725H5.78802C5.79252 27.6005 5.80152 27.506 5.80152 27.434ZM4.45602 26.8535C4.66302 26.8535 4.81152 26.975 4.85202 27.182H4.06002C4.10052 26.975 4.24452 26.8535 4.45602 26.8535ZM7.44546 28.712C8.04396 28.712 8.49396 28.4375 8.65596 27.983L7.86846 27.596C7.76496 27.8255 7.61646 27.92 7.44096 27.92C7.21146 27.92 7.02246 27.758 7.02246 27.434C7.02246 27.1145 7.21146 26.9525 7.44096 26.9525C7.61646 26.9525 7.76496 27.047 7.86846 27.2765L8.65596 26.8895C8.49396 26.435 8.04396 26.1605 7.44546 26.1605C6.59496 26.1605 5.99196 26.687 5.99196 27.434C5.99196 28.1855 6.59496 28.712 7.44546 28.712ZM9.85852 26.471V26.2055H8.89102V28.667H9.90802V27.5735C9.90802 27.182 10.124 27.0425 10.43 27.0425C10.502 27.0425 10.565 27.047 10.655 27.0605V26.1605C10.313 26.1605 10.0385 26.264 9.85852 26.471ZM13.5403 27.434C13.5403 26.6015 12.9148 26.1605 12.1858 26.1605C11.3893 26.1605 10.7908 26.687 10.7908 27.434C10.7908 28.1675 11.3758 28.712 12.2803 28.712C12.7708 28.712 13.1173 28.577 13.3558 28.316L12.8248 27.7805C12.6628 27.902 12.5368 27.9605 12.3118 27.9605C12.0598 27.9605 11.8888 27.8615 11.8168 27.6725H13.5268C13.5313 27.6005 13.5403 27.506 13.5403 27.434ZM12.1948 26.8535C12.4018 26.8535 12.5503 26.975 12.5908 27.182H11.7988C11.8393 26.975 11.9833 26.8535 12.1948 26.8535ZM15.4317 27.875C15.3642 27.92 15.2832 27.9425 15.2022 27.9425C15.0807 27.9425 14.9907 27.857 14.9907 27.704V27.083H15.4947V26.3405H14.9907V25.652H13.9737V26.3405H13.6362V27.083H13.9737V27.713C13.9737 28.3925 14.3697 28.712 15.0492 28.712C15.2877 28.712 15.5172 28.6715 15.6747 28.5815L15.4317 27.875ZM17.0336 26.1605C16.6511 26.1605 16.2146 26.2595 15.9266 26.4395L16.2506 27.11C16.4126 26.9885 16.6601 26.9165 16.8806 26.9165C17.1686 26.9165 17.3126 27.0155 17.3441 27.2045H16.9346C16.1696 27.2045 15.8096 27.47 15.8096 27.947C15.8096 28.37 16.1201 28.712 16.7231 28.712C17.0696 28.712 17.3036 28.5905 17.4206 28.343V28.667H18.3656V27.344C18.3656 26.525 17.8796 26.1605 17.0336 26.1605ZM17.0291 28.1C16.8761 28.1 16.7861 28.0145 16.7861 27.902C16.7861 27.767 16.8806 27.695 17.0966 27.695H17.3486V27.866C17.2946 28.028 17.1686 28.1 17.0291 28.1ZM19.7726 26.471V26.2055H18.8051V28.667H19.8221V27.5735C19.8221 27.182 20.0381 27.0425 20.3441 27.0425C20.4161 27.0425 20.4791 27.047 20.5691 27.0605V26.1605C20.2271 26.1605 19.9526 26.264 19.7726 26.471ZM21.3658 26.0075C21.7393 26.0075 21.9778 25.7825 21.9778 25.472C21.9778 25.1795 21.7393 24.9725 21.3658 24.9725C20.9923 24.9725 20.7538 25.1975 20.7538 25.49C20.7538 25.7825 20.9923 26.0075 21.3658 26.0075ZM20.8573 28.667H21.8743V26.2055H20.8573V28.667ZM23.4276 26.1605C23.0451 26.1605 22.6086 26.2595 22.3206 26.4395L22.6446 27.11C22.8066 26.9885 23.0541 26.9165 23.2746 26.9165C23.5626 26.9165 23.7066 27.0155 23.7381 27.2045H23.3286C22.5636 27.2045 22.2036 27.47 22.2036 27.947C22.2036 28.37 22.5141 28.712 23.1171 28.712C23.4636 28.712 23.6976 28.5905 23.8146 28.343V28.667H24.7596V27.344C24.7596 26.525 24.2736 26.1605 23.4276 26.1605ZM23.4231 28.1C23.2701 28.1 23.1801 28.0145 23.1801 27.902C23.1801 27.767 23.2746 27.695 23.4906 27.695H23.7426V27.866C23.6886 28.028 23.5626 28.1 23.4231 28.1ZM28.2537 25.328V26.372C28.1052 26.228 27.8982 26.1605 27.6282 26.1605C26.9847 26.1605 26.4402 26.642 26.4402 27.434C26.4402 28.226 26.9847 28.712 27.6282 28.712C27.9342 28.712 28.1547 28.631 28.3032 28.4645V28.667H29.2707V25.328H28.2537ZM27.8712 27.92C27.6462 27.92 27.4707 27.7535 27.4707 27.434C27.4707 27.1145 27.6462 26.9525 27.8712 26.9525C28.0962 26.9525 28.2717 27.1145 28.2717 27.434C28.2717 27.7535 28.0962 27.92 27.8712 27.92ZM32.3401 27.434C32.3401 26.6015 31.7146 26.1605 30.9856 26.1605C30.1891 26.1605 29.5906 26.687 29.5906 27.434C29.5906 28.1675 30.1756 28.712 31.0801 28.712C31.5706 28.712 31.9171 28.577 32.1556 28.316L31.6246 27.7805C31.4626 27.902 31.3366 27.9605 31.1116 27.9605C30.8596 27.9605 30.6886 27.8615 30.6166 27.6725H32.3266C32.3311 27.6005 32.3401 27.506 32.3401 27.434ZM30.9946 26.8535C31.2016 26.8535 31.3501 26.975 31.3906 27.182H30.5986C30.6391 26.975 30.7831 26.8535 30.9946 26.8535ZM35.0857 27.866V27.452H36.4177V26.687H35.0857V26.318H36.6022V25.517H34.0417V28.667H36.6607V27.866H35.0857ZM38.001 28.712C38.856 28.712 39.2745 28.325 39.2745 27.8795C39.2745 26.894 37.8615 27.227 37.8615 26.9705C37.8615 26.912 37.9335 26.8535 38.1945 26.8535C38.4015 26.8535 38.6535 26.894 38.9055 27.0335L39.1845 26.363C38.9235 26.228 38.541 26.1605 38.181 26.1605C37.353 26.1605 36.921 26.5385 36.921 27.002C36.921 27.9875 38.3385 27.65 38.3385 27.902C38.3385 27.974 38.271 28.019 38.0235 28.019C37.731 28.019 37.398 27.938 37.164 27.7985L36.885 28.469C37.137 28.613 37.578 28.712 38.001 28.712ZM41.1529 27.875C41.0854 27.92 41.0044 27.9425 40.9234 27.9425C40.8019 27.9425 40.7119 27.857 40.7119 27.704V27.083H41.2159V26.3405H40.7119V25.652H39.6949V26.3405H39.3574V27.083H39.6949V27.713C39.6949 28.3925 40.0909 28.712 40.7704 28.712C41.0089 28.712 41.2384 28.6715 41.3959 28.5815L41.1529 27.875ZM42.7547 26.1605C42.3722 26.1605 41.9357 26.2595 41.6477 26.4395L41.9717 27.11C42.1337 26.9885 42.3812 26.9165 42.6017 26.9165C42.8897 26.9165 43.0337 27.0155 43.0652 27.2045H42.6557C41.8907 27.2045 41.5307 27.47 41.5307 27.947C41.5307 28.37 41.8412 28.712 42.4442 28.712C42.7907 28.712 43.0247 28.5905 43.1417 28.343V28.667H44.0867V27.344C44.0867 26.525 43.6007 26.1605 42.7547 26.1605ZM42.7502 28.1C42.5972 28.1 42.5072 28.0145 42.5072 27.902C42.5072 27.767 42.6017 27.695 42.8177 27.695H43.0697V27.866C43.0157 28.028 42.8897 28.1 42.7502 28.1ZM46.2757 25.328V26.372C46.1272 26.228 45.9202 26.1605 45.6502 26.1605C45.0067 26.1605 44.4622 26.642 44.4622 27.434C44.4622 28.226 45.0067 28.712 45.6502 28.712C45.9562 28.712 46.1767 28.631 46.3252 28.4645V28.667H47.2927V25.328H46.2757ZM45.8932 27.92C45.6682 27.92 45.4927 27.7535 45.4927 27.434C45.4927 27.1145 45.6682 26.9525 45.8932 26.9525C46.1182 26.9525 46.2937 27.1145 46.2937 27.434C46.2937 27.7535 46.1182 27.92 45.8932 27.92ZM49.0436 28.712C49.8806 28.712 50.4746 28.181 50.4746 27.434C50.4746 26.687 49.8806 26.1605 49.0436 26.1605C48.2111 26.1605 47.6126 26.687 47.6126 27.434C47.6126 28.181 48.2111 28.712 49.0436 28.712ZM49.0436 27.92C48.8186 27.92 48.6431 27.7535 48.6431 27.434C48.6431 27.1145 48.8186 26.9525 49.0436 26.9525C49.2686 26.9525 49.4441 27.1145 49.4441 27.434C49.4441 27.7535 49.2686 27.92 49.0436 27.92ZM53.8475 25.328V26.372C53.699 26.228 53.492 26.1605 53.222 26.1605C52.5785 26.1605 52.034 26.642 52.034 27.434C52.034 28.226 52.5785 28.712 53.222 28.712C53.528 28.712 53.7485 28.631 53.897 28.4645V28.667H54.8645V25.328H53.8475ZM53.465 27.92C53.24 27.92 53.0645 27.7535 53.0645 27.434C53.0645 27.1145 53.24 26.9525 53.465 26.9525C53.69 26.9525 53.8655 27.1145 53.8655 27.434C53.8655 27.7535 53.69 27.92 53.465 27.92ZM57.9338 27.434C57.9338 26.6015 57.3083 26.1605 56.5793 26.1605C55.7828 26.1605 55.1843 26.687 55.1843 27.434C55.1843 28.1675 55.7693 28.712 56.6738 28.712C57.1643 28.712 57.5108 28.577 57.7493 28.316L57.2183 27.7805C57.0563 27.902 56.9303 27.9605 56.7053 27.9605C56.4533 27.9605 56.2823 27.8615 56.2103 27.6725H57.9203C57.9248 27.6005 57.9338 27.506 57.9338 27.434ZM56.5883 26.8535C56.7953 26.8535 56.9438 26.975 56.9843 27.182H56.1923C56.2328 26.975 56.3768 26.8535 56.5883 26.8535ZM62.1959 26.318V25.517H59.6354V28.667H60.6974V27.659H62.0114V26.858H60.6974V26.318H62.1959ZM63.5585 26.1605C63.176 26.1605 62.7395 26.2595 62.4515 26.4395L62.7755 27.11C62.9375 26.9885 63.185 26.9165 63.4055 26.9165C63.6935 26.9165 63.8375 27.0155 63.869 27.2045H63.4595C62.6945 27.2045 62.3345 27.47 62.3345 27.947C62.3345 28.37 62.645 28.712 63.248 28.712C63.5945 28.712 63.8285 28.5905 63.9455 28.343V28.667H64.8905V27.344C64.8905 26.525 64.4045 26.1605 63.5585 26.1605ZM63.554 28.1C63.401 28.1 63.311 28.0145 63.311 27.902C63.311 27.767 63.4055 27.695 63.6215 27.695H63.8735V27.866C63.8195 28.028 63.6935 28.1 63.554 28.1ZM66.5225 27.9245L67.5395 26.7905V26.2055H65.276V26.948H66.257L65.24 28.082V28.667H67.589V27.9245H66.5225ZM70.4934 27.434C70.4934 26.6015 69.8679 26.1605 69.1389 26.1605C68.3424 26.1605 67.7439 26.687 67.7439 27.434C67.7439 28.1675 68.3289 28.712 69.2334 28.712C69.7239 28.712 70.0704 28.577 70.3089 28.316L69.7779 27.7805C69.6159 27.902 69.4899 27.9605 69.2649 27.9605C69.0129 27.9605 68.8419 27.8615 68.7699 27.6725H70.4799C70.4844 27.6005 70.4934 27.506 70.4934 27.434ZM69.1479 26.8535C69.3549 26.8535 69.5034 26.975 69.5439 27.182H68.7519C68.7924 26.975 68.9364 26.8535 69.1479 26.8535ZM72.5244 26.1605C72.2364 26.1605 71.9754 26.255 71.7819 26.4485V26.2055H70.8144V28.667H71.8314V27.5105C71.8314 27.146 72.0069 27.0155 72.2139 27.0155C72.3984 27.0155 72.5154 27.1325 72.5154 27.4385V28.667H73.5324V27.263C73.5324 26.489 73.0914 26.1605 72.5244 26.1605ZM75.7235 25.328V26.372C75.575 26.228 75.368 26.1605 75.098 26.1605C74.4545 26.1605 73.91 26.642 73.91 27.434C73.91 28.226 74.4545 28.712 75.098 28.712C75.404 28.712 75.6245 28.631 75.773 28.4645V28.667H76.7405V25.328H75.7235ZM75.341 27.92C75.116 27.92 74.9405 27.7535 74.9405 27.434C74.9405 27.1145 75.116 26.9525 75.341 26.9525C75.566 26.9525 75.7415 27.1145 75.7415 27.434C75.7415 27.7535 75.566 27.92 75.341 27.92ZM78.2933 26.1605C77.9108 26.1605 77.4743 26.2595 77.1863 26.4395L77.5103 27.11C77.6723 26.9885 77.9198 26.9165 78.1403 26.9165C78.4283 26.9165 78.5723 27.0155 78.6038 27.2045H78.1943C77.4293 27.2045 77.0693 27.47 77.0693 27.947C77.0693 28.37 77.3798 28.712 77.9828 28.712C78.3293 28.712 78.5633 28.5905 78.6803 28.343V28.667H79.6253V27.344C79.6253 26.525 79.1393 26.1605 78.2933 26.1605ZM78.2888 28.1C78.1358 28.1 78.0458 28.0145 78.0458 27.902C78.0458 27.767 78.1403 27.695 78.3563 27.695H78.6083V27.866C78.5543 28.028 78.4283 28.1 78.2888 28.1Z" fill="white"/>
</g>
</svg>
