<svg width="109" height="35" viewBox="0 0 109 35" fill="none" xmlns="http://www.w3.org/2000/svg">
<path fill-rule="evenodd" clip-rule="evenodd" d="M77.543 27.014L92.8996 0.0273438L108.256 27.014H77.543Z" fill="#E60000"/>
<path fill-rule="evenodd" clip-rule="evenodd" d="M29.14 12.0612C28.7872 11.593 28.326 11.2075 27.7291 10.9321C27.1593 10.6568 26.5082 10.5191 25.8027 10.5191H13.7291C13.2407 10.5191 12.8609 10.3539 12.5896 9.99587C12.3183 9.66542 12.2369 9.25236 12.3454 8.75669L12.7252 7.02184C12.8338 6.52616 13.1051 6.1131 13.5121 5.75512C13.8919 5.42467 14.3531 5.25945 14.8415 5.25945H32.0702L33.1826 0.0273438H10.7446H10.7175C10.0121 0.0273438 9.30662 0.165031 8.62833 0.440404C7.95004 0.715778 7.326 1.1013 6.75624 1.56944C6.18647 2.03757 5.6981 2.58832 5.31825 3.22168C4.91128 3.85504 4.63996 4.54347 4.5043 5.25945L3.41903 10.5191C3.25624 11.2351 3.25624 11.9235 3.3919 12.5568C3.52756 13.1902 3.77174 13.741 4.15159 14.2091C4.53143 14.6772 4.99267 15.0627 5.56244 15.3381C6.15934 15.6135 6.78337 15.7512 7.48879 15.7512H19.5353C20.0237 15.7512 20.4035 15.9164 20.6748 16.2744C20.919 16.6048 21.0004 17.0179 20.8919 17.5136L20.5663 19.2484C20.4578 19.7441 20.1865 20.1572 19.7795 20.4876C19.3725 20.8456 18.9384 21.0108 18.45 21.0108H1.16709L0.0546875 26.2429H22.4927C23.2252 26.2429 23.9307 26.1052 24.6089 25.8299C25.2872 25.5545 25.9113 25.169 26.481 24.7008C27.0508 24.2327 27.5121 23.6819 27.919 23.0486C28.326 22.3877 28.5973 21.7268 28.7601 20.9833L29.8725 15.7512C30.0082 15.0077 30.0082 14.3468 29.8725 13.6859C29.7369 13.0525 29.4927 12.5018 29.14 12.0612Z" fill="#D9D9D9"/>
<path fill-rule="evenodd" clip-rule="evenodd" d="M59.2834 15.7518L60.3958 10.4922H43.14L42.0547 15.7518H59.2834Z" fill="#D9D9D9"/>
<path fill-rule="evenodd" clip-rule="evenodd" d="M39.8837 20.4878C39.6395 20.1574 39.5581 19.7443 39.6667 19.2486L40.3992 15.7514L42.2442 6.96695C42.3527 6.47128 42.624 6.08576 43.0039 5.72777C43.4109 5.39732 43.845 5.2321 44.3333 5.2321H61.5349L62.6473 0H40.2364H40.2093C39.5039 0 38.8256 0.137687 38.1473 0.413061C37.4419 0.688434 36.8178 1.07396 36.2481 1.54209C35.7054 2.01023 35.2171 2.56098 34.8101 3.19433C34.4302 3.82769 34.1589 4.51613 33.9961 5.2321L30.6589 21.011C30.4961 21.727 30.4961 22.4154 30.6318 23.0488C30.7674 23.6821 31.0116 24.2329 31.3915 24.701C31.7442 25.1692 32.2326 25.5271 32.8023 25.8025C33.3721 26.0779 34.0233 26.2156 34.7287 26.2156H57.0581L58.1705 20.9835H40.9961C40.5078 21.011 40.155 20.8458 39.8837 20.4878Z" fill="#D9D9D9"/>
<path fill-rule="evenodd" clip-rule="evenodd" d="M72.6046 10.4922L71.4922 15.7518H82.9418L85.9263 10.4922H72.6046Z" fill="#D9D9D9"/>
<path fill-rule="evenodd" clip-rule="evenodd" d="M69.6472 0H69.62C68.9146 0 68.2092 0.137687 67.5309 0.413061C66.8526 0.688434 66.2286 1.07396 65.6588 1.54209C65.089 2.01023 64.6007 2.56098 64.2208 3.19434C63.8138 3.85523 63.5425 4.51613 63.4069 5.25964L58.9844 26.2431H67.6123L71.6278 6.96696C71.7363 6.47128 72.0076 6.05822 72.4146 5.72777C72.7945 5.39733 73.2557 5.2321 73.7441 5.2321H88.9107L91.8952 0H69.6472Z" fill="#D9D9D9"/>
<path d="M1.59 33.8573C2.675 33.8573 3.22 33.3173 3.22 32.6773C3.22 31.3873 1.285 31.7373 1.285 31.3173C1.285 31.1973 1.395 31.0973 1.74 31.0973C2.045 31.0973 2.37 31.1823 2.715 31.3573L3.07 30.5023C2.705 30.2973 2.22 30.1973 1.75 30.1973C0.665 30.1973 0.12 30.7273 0.12 31.3773C0.12 32.6823 2.055 32.3273 2.055 32.7673C2.055 32.8873 1.935 32.9573 1.6 32.9573C1.215 32.9573 0.775 32.8323 0.445 32.6373L0.065 33.4973C0.415 33.7123 1.005 33.8573 1.59 33.8573ZM6.44613 32.4073C6.44613 31.4823 5.75113 30.9923 4.94113 30.9923C4.05613 30.9923 3.39113 31.5773 3.39113 32.4073C3.39113 33.2223 4.04113 33.8273 5.04613 33.8273C5.59113 33.8273 5.97613 33.6773 6.24113 33.3873L5.65113 32.7923C5.47113 32.9273 5.33113 32.9923 5.08113 32.9923C4.80113 32.9923 4.61113 32.8823 4.53113 32.6723H6.43113C6.43613 32.5923 6.44613 32.4873 6.44613 32.4073ZM4.95113 31.7623C5.18113 31.7623 5.34613 31.8973 5.39113 32.1273H4.51113C4.55613 31.8973 4.71613 31.7623 4.95113 31.7623ZM8.27273 33.8273C8.93773 33.8273 9.43773 33.5223 9.61773 33.0173L8.74273 32.5873C8.62773 32.8423 8.46273 32.9473 8.26773 32.9473C8.01273 32.9473 7.80273 32.7673 7.80273 32.4073C7.80273 32.0523 8.01273 31.8723 8.26773 31.8723C8.46273 31.8723 8.62773 31.9773 8.74273 32.2323L9.61773 31.8023C9.43773 31.2973 8.93773 30.9923 8.27273 30.9923C7.32773 30.9923 6.65773 31.5773 6.65773 32.4073C6.65773 33.2423 7.32773 33.8273 8.27273 33.8273ZM10.9539 31.3373V31.0423H9.87891V33.7773H11.0089V32.5623C11.0089 32.1273 11.2489 31.9723 11.5889 31.9723C11.6689 31.9723 11.7389 31.9773 11.8389 31.9923V30.9923C11.4589 30.9923 11.1539 31.1073 10.9539 31.3373ZM15.0448 32.4073C15.0448 31.4823 14.3498 30.9923 13.5398 30.9923C12.6548 30.9923 11.9898 31.5773 11.9898 32.4073C11.9898 33.2223 12.6398 33.8273 13.6448 33.8273C14.1898 33.8273 14.5748 33.6773 14.8398 33.3873L14.2498 32.7923C14.0698 32.9273 13.9298 32.9923 13.6798 32.9923C13.3998 32.9923 13.2098 32.8823 13.1298 32.6723H15.0298C15.0348 32.5923 15.0448 32.4873 15.0448 32.4073ZM13.5498 31.7623C13.7798 31.7623 13.9448 31.8973 13.9898 32.1273H13.1098C13.1548 31.8973 13.3148 31.7623 13.5498 31.7623ZM17.1464 32.8973C17.0714 32.9473 16.9814 32.9723 16.8914 32.9723C16.7564 32.9723 16.6564 32.8773 16.6564 32.7073V32.0173H17.2164V31.1923H16.6564V30.4273H15.5264V31.1923H15.1514V32.0173H15.5264V32.7173C15.5264 33.4723 15.9664 33.8273 16.7214 33.8273C16.9864 33.8273 17.2414 33.7823 17.4164 33.6823L17.1464 32.8973ZM18.9262 30.9923C18.5012 30.9923 18.0162 31.1023 17.6962 31.3023L18.0562 32.0473C18.2362 31.9123 18.5112 31.8323 18.7562 31.8323C19.0762 31.8323 19.2362 31.9423 19.2712 32.1523H18.8162C17.9662 32.1523 17.5662 32.4473 17.5662 32.9773C17.5662 33.4473 17.9112 33.8273 18.5812 33.8273C18.9662 33.8273 19.2262 33.6923 19.3562 33.4173V33.7773H20.4062V32.3073C20.4062 31.3973 19.8662 30.9923 18.9262 30.9923ZM18.9212 33.1473C18.7512 33.1473 18.6512 33.0523 18.6512 32.9273C18.6512 32.7773 18.7562 32.6973 18.9962 32.6973H19.2762V32.8873C19.2162 33.0673 19.0762 33.1473 18.9212 33.1473ZM21.9695 31.3373V31.0423H20.8945V33.7773H22.0245V32.5623C22.0245 32.1273 22.2645 31.9723 22.6045 31.9723C22.6845 31.9723 22.7545 31.9773 22.8545 31.9923V30.9923C22.4745 30.9923 22.1695 31.1073 21.9695 31.3373ZM23.7398 30.8223C24.1548 30.8223 24.4198 30.5723 24.4198 30.2273C24.4198 29.9023 24.1548 29.6723 23.7398 29.6723C23.3248 29.6723 23.0598 29.9223 23.0598 30.2473C23.0598 30.5723 23.3248 30.8223 23.7398 30.8223ZM23.1748 33.7773H24.3048V31.0423H23.1748V33.7773ZM26.0307 30.9923C25.6057 30.9923 25.1207 31.1023 24.8007 31.3023L25.1607 32.0473C25.3407 31.9123 25.6157 31.8323 25.8607 31.8323C26.1807 31.8323 26.3407 31.9423 26.3757 32.1523H25.9207C25.0707 32.1523 24.6707 32.4473 24.6707 32.9773C24.6707 33.4473 25.0157 33.8273 25.6857 33.8273C26.0707 33.8273 26.3307 33.6923 26.4607 33.4173V33.7773H27.5107V32.3073C27.5107 31.3973 26.9707 30.9923 26.0307 30.9923ZM26.0257 33.1473C25.8557 33.1473 25.7557 33.0523 25.7557 32.9273C25.7557 32.7773 25.8607 32.6973 26.1007 32.6973H26.3807V32.8873C26.3207 33.0673 26.1807 33.1473 26.0257 33.1473ZM31.393 30.0673V31.2273C31.228 31.0673 30.998 30.9923 30.698 30.9923C29.983 30.9923 29.378 31.5273 29.378 32.4073C29.378 33.2873 29.983 33.8273 30.698 33.8273C31.038 33.8273 31.283 33.7373 31.448 33.5523V33.7773H32.523V30.0673H31.393ZM30.968 32.9473C30.718 32.9473 30.523 32.7623 30.523 32.4073C30.523 32.0523 30.718 31.8723 30.968 31.8723C31.218 31.8723 31.413 32.0523 31.413 32.4073C31.413 32.7623 31.218 32.9473 30.968 32.9473ZM35.9334 32.4073C35.9334 31.4823 35.2384 30.9923 34.4284 30.9923C33.5434 30.9923 32.8784 31.5773 32.8784 32.4073C32.8784 33.2223 33.5284 33.8273 34.5334 33.8273C35.0784 33.8273 35.4634 33.6773 35.7284 33.3873L35.1384 32.7923C34.9584 32.9273 34.8184 32.9923 34.5684 32.9923C34.2884 32.9923 34.0984 32.8823 34.0184 32.6723H35.9184C35.9234 32.5923 35.9334 32.4873 35.9334 32.4073ZM34.4384 31.7623C34.6684 31.7623 34.8334 31.8973 34.8784 32.1273H33.9984C34.0434 31.8973 34.2034 31.7623 34.4384 31.7623ZM38.9841 32.8873V32.4273H40.4641V31.5773H38.9841V31.1673H40.6691V30.2773H37.8241V33.7773H40.7341V32.8873H38.9841ZM42.2233 33.8273C43.1733 33.8273 43.6383 33.3973 43.6383 32.9023C43.6383 31.8073 42.0683 32.1773 42.0683 31.8923C42.0683 31.8273 42.1483 31.7623 42.4383 31.7623C42.6683 31.7623 42.9483 31.8073 43.2283 31.9623L43.5383 31.2173C43.2483 31.0673 42.8233 30.9923 42.4233 30.9923C41.5033 30.9923 41.0233 31.4123 41.0233 31.9273C41.0233 33.0223 42.5983 32.6473 42.5983 32.9273C42.5983 33.0073 42.5233 33.0573 42.2483 33.0573C41.9233 33.0573 41.5533 32.9673 41.2933 32.8123L40.9833 33.5573C41.2633 33.7173 41.7533 33.8273 42.2233 33.8273ZM45.7255 32.8973C45.6505 32.9473 45.5605 32.9723 45.4705 32.9723C45.3355 32.9723 45.2355 32.8773 45.2355 32.7073V32.0173H45.7955V31.1923H45.2355V30.4273H44.1055V31.1923H43.7305V32.0173H44.1055V32.7173C44.1055 33.4723 44.5455 33.8273 45.3005 33.8273C45.5655 33.8273 45.8205 33.7823 45.9955 33.6823L45.7255 32.8973ZM47.5053 30.9923C47.0803 30.9923 46.5953 31.1023 46.2753 31.3023L46.6353 32.0473C46.8153 31.9123 47.0903 31.8323 47.3353 31.8323C47.6553 31.8323 47.8153 31.9423 47.8503 32.1523H47.3953C46.5453 32.1523 46.1453 32.4473 46.1453 32.9773C46.1453 33.4473 46.4903 33.8273 47.1603 33.8273C47.5453 33.8273 47.8053 33.6923 47.9353 33.4173V33.7773H48.9853V32.3073C48.9853 31.3973 48.4453 30.9923 47.5053 30.9923ZM47.5003 33.1473C47.3303 33.1473 47.2303 33.0523 47.2303 32.9273C47.2303 32.7773 47.3353 32.6973 47.5753 32.6973H47.8553V32.8873C47.7953 33.0673 47.6553 33.1473 47.5003 33.1473ZM51.4175 30.0673V31.2273C51.2525 31.0673 51.0225 30.9923 50.7225 30.9923C50.0075 30.9923 49.4025 31.5273 49.4025 32.4073C49.4025 33.2873 50.0075 33.8273 50.7225 33.8273C51.0625 33.8273 51.3075 33.7373 51.4725 33.5523V33.7773H52.5475V30.0673H51.4175ZM50.9925 32.9473C50.7425 32.9473 50.5475 32.7623 50.5475 32.4073C50.5475 32.0523 50.7425 31.8723 50.9925 31.8723C51.2425 31.8723 51.4375 32.0523 51.4375 32.4073C51.4375 32.7623 51.2425 32.9473 50.9925 32.9473ZM54.4929 33.8273C55.4229 33.8273 56.0829 33.2373 56.0829 32.4073C56.0829 31.5773 55.4229 30.9923 54.4929 30.9923C53.5679 30.9923 52.9029 31.5773 52.9029 32.4073C52.9029 33.2373 53.5679 33.8273 54.4929 33.8273ZM54.4929 32.9473C54.2429 32.9473 54.0479 32.7623 54.0479 32.4073C54.0479 32.0523 54.2429 31.8723 54.4929 31.8723C54.7429 31.8723 54.9379 32.0523 54.9379 32.4073C54.9379 32.7623 54.7429 32.9473 54.4929 32.9473ZM59.8305 30.0673V31.2273C59.6655 31.0673 59.4355 30.9923 59.1355 30.9923C58.4205 30.9923 57.8155 31.5273 57.8155 32.4073C57.8155 33.2873 58.4205 33.8273 59.1355 33.8273C59.4755 33.8273 59.7205 33.7373 59.8855 33.5523V33.7773H60.9605V30.0673H59.8305ZM59.4055 32.9473C59.1555 32.9473 58.9605 32.7623 58.9605 32.4073C58.9605 32.0523 59.1555 31.8723 59.4055 31.8723C59.6555 31.8723 59.8505 32.0523 59.8505 32.4073C59.8505 32.7623 59.6555 32.9473 59.4055 32.9473ZM64.3709 32.4073C64.3709 31.4823 63.6759 30.9923 62.8659 30.9923C61.9809 30.9923 61.3159 31.5773 61.3159 32.4073C61.3159 33.2223 61.9659 33.8273 62.9709 33.8273C63.5159 33.8273 63.9009 33.6773 64.1659 33.3873L63.5759 32.7923C63.3959 32.9273 63.2559 32.9923 63.0059 32.9923C62.7259 32.9923 62.5359 32.8823 62.4559 32.6723H64.3559C64.3609 32.5923 64.3709 32.4873 64.3709 32.4073ZM62.8759 31.7623C63.1059 31.7623 63.2709 31.8973 63.3159 32.1273H62.4359C62.4809 31.8973 62.6409 31.7623 62.8759 31.7623ZM69.1066 31.1673V30.2773H66.2616V33.7773H67.4416V32.6573H68.9016V31.7673H67.4416V31.1673H69.1066ZM70.6205 30.9923C70.1955 30.9923 69.7105 31.1023 69.3905 31.3023L69.7505 32.0473C69.9305 31.9123 70.2055 31.8323 70.4505 31.8323C70.7705 31.8323 70.9305 31.9423 70.9655 32.1523H70.5105C69.6605 32.1523 69.2605 32.4473 69.2605 32.9773C69.2605 33.4473 69.6055 33.8273 70.2755 33.8273C70.6605 33.8273 70.9205 33.6923 71.0505 33.4173V33.7773H72.1005V32.3073C72.1005 31.3973 71.5605 30.9923 70.6205 30.9923ZM70.6155 33.1473C70.4455 33.1473 70.3455 33.0523 70.3455 32.9273C70.3455 32.7773 70.4505 32.6973 70.6905 32.6973H70.9705V32.8873C70.9105 33.0673 70.7705 33.1473 70.6155 33.1473ZM73.9139 32.9523L75.0439 31.6923V31.0423H72.5289V31.8673H73.6189L72.4889 33.1273V33.7773H75.0989V32.9523H73.9139ZM78.326 32.4073C78.326 31.4823 77.631 30.9923 76.821 30.9923C75.936 30.9923 75.271 31.5773 75.271 32.4073C75.271 33.2223 75.921 33.8273 76.926 33.8273C77.471 33.8273 77.856 33.6773 78.121 33.3873L77.531 32.7923C77.351 32.9273 77.211 32.9923 76.961 32.9923C76.681 32.9923 76.491 32.8823 76.411 32.6723H78.311C78.316 32.5923 78.326 32.4873 78.326 32.4073ZM76.831 31.7623C77.061 31.7623 77.226 31.8973 77.271 32.1273H76.391C76.436 31.8973 76.596 31.7623 76.831 31.7623ZM80.5826 30.9923C80.2626 30.9923 79.9726 31.0973 79.7576 31.3123V31.0423H78.6826V33.7773H79.8126V32.4923C79.8126 32.0873 80.0076 31.9423 80.2376 31.9423C80.4426 31.9423 80.5726 32.0723 80.5726 32.4123V33.7773H81.7026V32.2173C81.7026 31.3573 81.2126 30.9923 80.5826 30.9923ZM84.1372 30.0673V31.2273C83.9722 31.0673 83.7422 30.9923 83.4422 30.9923C82.7272 30.9923 82.1222 31.5273 82.1222 32.4073C82.1222 33.2873 82.7272 33.8273 83.4422 33.8273C83.7822 33.8273 84.0272 33.7373 84.1922 33.5523V33.7773H85.2672V30.0673H84.1372ZM83.7122 32.9473C83.4622 32.9473 83.2672 32.7623 83.2672 32.4073C83.2672 32.0523 83.4622 31.8723 83.7122 31.8723C83.9622 31.8723 84.1572 32.0523 84.1572 32.4073C84.1572 32.7623 83.9622 32.9473 83.7122 32.9473ZM86.9926 30.9923C86.5676 30.9923 86.0826 31.1023 85.7626 31.3023L86.1226 32.0473C86.3026 31.9123 86.5776 31.8323 86.8226 31.8323C87.1426 31.8323 87.3026 31.9423 87.3376 32.1523H86.8826C86.0326 32.1523 85.6326 32.4473 85.6326 32.9773C85.6326 33.4473 85.9776 33.8273 86.6476 33.8273C87.0326 33.8273 87.2926 33.6923 87.4226 33.4173V33.7773H88.4726V32.3073C88.4726 31.3973 87.9326 30.9923 86.9926 30.9923ZM86.9876 33.1473C86.8176 33.1473 86.7176 33.0523 86.7176 32.9273C86.7176 32.7773 86.8226 32.6973 87.0626 32.6973H87.3426V32.8873C87.2826 33.0673 87.1426 33.1473 86.9876 33.1473Z" fill="white"/>
</svg>
