<svg width="191" height="30" viewBox="0 0 191 30" fill="none" xmlns="http://www.w3.org/2000/svg">
<g opacity="0.5" clip-path="url(#clip0_78_4418)">
<path d="M66.4945 0.274414H37.0439V29.725H66.4945V0.274414Z" fill="#DEDEDD"/>
<path d="M56.0595 11.4365L51.7691 17.404L47.4824 11.4365L38.9053 23.3715H47.4824L51.7691 17.404L56.0595 23.3715H64.6366L56.0595 11.4365Z" fill="#E1251B"/>
<path d="M47.4824 23.3708L51.7692 17.4033L56.0595 23.3708H47.4824Z" fill="#FFBBAA"/>
<path d="M51.7692 5.46875L47.4824 11.4362L51.7692 17.4037L56.0595 11.4362L51.7692 5.46875Z" fill="#E1251B"/>
<g style="mix-blend-mode:multiply" opacity="0.35">
<path d="M51.7692 5.46875L47.4824 11.4362L51.7692 17.4037L56.0595 11.4362L51.7692 5.46875Z" fill="#3D3935"/>
</g>
<path d="M85.5316 13.381V6.80994L82.6219 11.2991V11.3172H80.8111V11.2991L77.8834 6.77379V13.381H74.6484V0.282227H77.0557L81.7183 7.27259L86.3629 0.282227H88.7882V13.381H85.5316Z" fill="white"/>
<path d="M94.9871 0.282227H91.7305V13.381H94.9871V0.282227Z" fill="white"/>
<path d="M107.465 13.381L101.183 6.19548V13.381H97.9297V0.282227H100.413L106.734 7.65934V0.282227H109.988V13.381H107.465Z" fill="white"/>
<path d="M114.694 13.3735H111.228L116.761 0.27832H119.931L125.443 13.3735H121.995L121.109 11.1181H115.561L114.694 13.3735ZM116.642 8.34218H120.032L118.337 4.00483L116.642 8.34218Z" fill="white"/>
<path d="M136.817 4.35542H133.542C133.369 3.37229 132.751 2.69639 131.421 2.69639C130.304 2.69639 129.552 3.15904 129.552 4.00843C129.552 4.73133 130.072 5.02771 131.056 5.24096L132.884 5.66386C135.274 6.18434 136.835 7.1494 136.835 9.4012C136.835 12.0217 134.666 13.659 131.413 13.659C128.453 13.659 125.796 12.2892 125.489 9.03614H128.742C128.956 10.1928 129.957 10.8867 131.5 10.8867C132.711 10.8867 133.347 10.4422 133.347 9.73012C133.347 9.28554 133.076 8.82289 131.959 8.61325L129.79 8.12891C127.206 7.57229 125.995 6.35783 125.995 4.2759C126.01 1.65904 128.128 0 131.207 0C133.329 0 136.488 0.827711 136.817 4.35542Z" fill="white"/>
<path d="M85.59 29.7293L85.4563 28.1497C84.9558 28.7573 84.3213 29.2407 83.6026 29.5618C82.8839 29.8829 82.1006 30.033 81.3141 30.0003C77.2117 30.0003 74.3418 27.0726 74.3418 23.3136C74.3418 19.2329 77.3454 16.3594 81.3539 16.3594C84.549 16.3594 87.3249 18.1666 87.8816 21.2931H84.4731C83.8948 19.7714 82.5864 19.3485 81.4081 19.3485C79.1743 19.3485 77.6346 20.9281 77.6346 23.2377C77.6346 25.2979 79.1165 26.975 81.4478 26.975C82.1347 26.9972 82.8133 26.8198 83.4015 26.4645C83.9897 26.1091 84.4623 25.5909 84.7623 24.9726L81.0069 24.9401V22.3702H88.0189V29.7293H85.59Z" fill="white"/>
<path d="M90.4043 16.6299V29.7287H100.308V26.8986H93.6609V24.6251H99.4585V21.8492H93.6609V19.4636H100.308V16.6299H90.4043Z" fill="white"/>
<path d="M105.95 29.7294H102.697V16.627H108.437C111.69 16.627 113.859 18.398 113.859 21.2318C113.876 22.0803 113.647 22.9157 113.201 23.6376C112.755 24.3595 112.11 24.9373 111.343 25.3017L114.336 29.7294H110.407L107.974 25.9342H105.95V29.7294ZM110.613 21.2354C110.613 20.1764 109.608 19.5004 108.358 19.5004H105.95V23.0065H108.358C109.608 23.0065 110.613 22.3125 110.613 21.2354Z" fill="white"/>
<path d="M146.262 20.6926H142.984C142.81 19.7131 142.196 19.0372 140.866 19.0372C139.749 19.0372 138.997 19.4999 138.997 20.3493C138.997 21.0721 139.518 21.3685 140.501 21.5818L142.33 22.0047C144.719 22.5252 146.28 23.4902 146.28 25.742C146.28 28.3625 144.112 29.9999 140.859 29.9999C137.909 29.9999 135.253 28.6119 134.945 25.377H138.198C138.412 26.53 139.413 27.224 140.953 27.224C142.167 27.224 142.803 26.783 142.803 26.0673C142.803 25.6264 142.532 25.1637 141.415 24.9541L139.247 24.4734C136.666 23.9131 135.455 22.6987 135.455 20.6167C135.455 17.9962 137.573 16.3408 140.653 16.3408C142.774 16.3408 145.933 17.1685 146.262 20.6782" fill="white"/>
<path d="M133.178 16.6299H129.921V29.7287H133.178V16.6299Z" fill="white"/>
<path d="M121.875 20.3498L123.574 24.6872H120.183L121.875 20.3498ZM120.306 16.627L114.772 29.7294H118.239L119.106 27.4776H124.654L125.54 29.7294H128.988L123.476 16.627H120.306Z" fill="white"/>
<path d="M152.793 3.79495C152.787 3.45753 152.871 3.12457 153.035 2.82989C153.195 2.55095 153.429 2.32193 153.711 2.16844C154.006 2.00726 154.337 1.92507 154.673 1.92989C154.948 1.92659 155.221 1.97948 155.475 2.08531C155.718 2.17878 155.933 2.33165 156.1 2.52989C156.275 2.73633 156.39 2.98617 156.433 3.25278H155.508C155.476 3.15905 155.427 3.07204 155.363 2.99615C155.307 2.92923 155.238 2.87397 155.161 2.8335C155.088 2.79789 155.012 2.77003 154.933 2.75037C154.853 2.73423 154.772 2.72576 154.691 2.72507C154.557 2.72111 154.423 2.74509 154.299 2.79549C154.174 2.84589 154.062 2.92161 153.968 3.01784C153.872 3.11899 153.798 3.23832 153.75 3.36871C153.701 3.49911 153.68 3.63792 153.686 3.77687C153.681 3.91022 153.704 4.04312 153.752 4.16743C153.801 4.29173 153.874 4.40483 153.968 4.49977C154.081 4.61557 154.219 4.7028 154.373 4.75421C154.526 4.80561 154.689 4.8197 154.849 4.79531C155.009 4.77092 155.16 4.70875 155.291 4.61397C155.422 4.51919 155.529 4.39454 155.602 4.25037H154.593V3.54194H156.476V5.51904H155.826L155.79 5.09254C155.656 5.2569 155.486 5.38763 155.292 5.47425C155.099 5.56088 154.888 5.60098 154.676 5.59133C154.337 5.59654 154.002 5.51439 153.704 5.35278C153.422 5.2022 153.188 4.97554 153.028 4.69856C152.87 4.42147 152.789 4.1069 152.793 3.78772" fill="#DEDEDD"/>
<path d="M158.992 3.03986C158.809 3.23544 158.709 3.49476 158.714 3.76275C158.71 3.89562 158.733 4.02785 158.781 4.15188C158.829 4.27591 158.901 4.38933 158.992 4.48564C159.082 4.58046 159.191 4.65596 159.311 4.70754C159.431 4.75913 159.561 4.78573 159.692 4.78573C159.822 4.78573 159.952 4.75913 160.072 4.70754C160.192 4.65596 160.301 4.58046 160.391 4.48564C160.483 4.38933 160.554 4.27591 160.602 4.15188C160.65 4.02785 160.673 3.89562 160.669 3.76275C160.674 3.49476 160.574 3.23544 160.391 3.03986C160.301 2.94504 160.192 2.86955 160.072 2.81796C159.952 2.76637 159.822 2.73977 159.692 2.73977C159.561 2.73977 159.431 2.76637 159.311 2.81796C159.191 2.86955 159.082 2.94504 158.992 3.03986ZM158.07 4.6989C157.909 4.41887 157.825 4.10057 157.828 3.77721C157.824 3.4514 157.907 3.13044 158.07 2.84829C158.228 2.56423 158.46 2.32909 158.743 2.16878C158.998 2.02673 159.282 1.94388 159.573 1.92636C159.865 1.90884 160.157 1.9571 160.427 2.06757C160.763 2.20388 161.05 2.43808 161.251 2.73975C161.452 3.04141 161.558 3.3966 161.555 3.75914C161.557 4.00754 161.508 4.25375 161.41 4.48203C161.32 4.69901 161.187 4.89568 161.02 5.06034C160.85 5.2289 160.649 5.36165 160.427 5.4507C160.197 5.54374 159.952 5.59161 159.704 5.59167C159.368 5.59863 159.036 5.51499 158.743 5.3495C158.465 5.19667 158.232 4.97199 158.07 4.6989Z" fill="#DEDEDD"/>
<path d="M162.487 1.99902H163.449L164.457 4.38457L165.458 1.99902H166.423L164.902 5.53758H164.016L162.487 1.99902Z" fill="#DEDEDD"/>
<path d="M167.771 5.51951V1.99902H170.432V2.75806H168.643V3.40143H170.208V4.14601H168.643V4.75685H170.432V5.51951H167.771Z" fill="#DEDEDD"/>
<path d="M172.857 3.7124H173.504C173.654 3.7158 173.802 3.67012 173.923 3.58228C173.978 3.54348 174.022 3.49192 174.053 3.43208C174.083 3.37225 174.098 3.30594 174.097 3.23891C174.099 3.17117 174.085 3.1039 174.054 3.04328C174.024 2.98265 173.979 2.93061 173.923 2.89192C173.797 2.80523 173.646 2.76093 173.493 2.76541H172.846L172.857 3.7124ZM171.982 5.51963V1.99915H173.519C173.901 1.97957 174.277 2.09898 174.578 2.33529C174.711 2.44651 174.817 2.58742 174.887 2.74681C174.957 2.90621 174.988 3.07966 174.979 3.25336C174.982 3.46719 174.929 3.67808 174.823 3.86421C174.72 4.04804 174.567 4.19945 174.382 4.30156L175.21 5.53409H174.191L173.519 4.51481H172.857V5.53409L171.982 5.51963Z" fill="#DEDEDD"/>
<path d="M176.493 5.51951V1.99902H177.162L178.861 3.98336V1.99902H179.735V5.51951H179.056L177.368 3.58938V5.51951H176.493Z" fill="#DEDEDD"/>
<path d="M182.237 3.03942C182.054 3.235 181.954 3.49432 181.958 3.76232C181.955 3.89518 181.978 4.02741 182.026 4.15144C182.074 4.27548 182.145 4.38889 182.237 4.48521C182.327 4.58002 182.435 4.65552 182.556 4.70711C182.676 4.7587 182.805 4.7853 182.936 4.7853C183.067 4.7853 183.197 4.7587 183.317 4.70711C183.437 4.65552 183.545 4.58002 183.636 4.48521C183.728 4.38948 183.8 4.27616 183.848 4.15199C183.896 4.02781 183.918 3.8953 183.914 3.76232C183.917 3.62945 183.894 3.49722 183.847 3.37319C183.799 3.24915 183.727 3.13574 183.636 3.03942C183.545 2.94461 183.437 2.86911 183.317 2.81752C183.197 2.76594 183.067 2.73933 182.936 2.73933C182.805 2.73933 182.676 2.76594 182.556 2.81752C182.435 2.86911 182.327 2.94461 182.237 3.03942ZM181.326 4.69846C181.163 4.41879 181.078 4.10047 181.08 3.77677C181.077 3.45063 181.162 3.12964 181.326 2.84786C181.481 2.56324 181.713 2.32781 181.995 2.16834C182.251 2.02706 182.535 1.94496 182.828 1.92807C183.12 1.91118 183.412 1.95994 183.683 2.07075C183.903 2.16033 184.105 2.29164 184.275 2.4575C184.441 2.62647 184.573 2.8251 184.666 3.04304C184.857 3.50608 184.857 4.02578 184.666 4.48882C184.574 4.70611 184.439 4.90295 184.27 5.06798C184.102 5.23301 183.902 5.36294 183.683 5.45027C183.453 5.54296 183.207 5.59081 182.96 5.59123C182.627 5.59573 182.299 5.51219 182.009 5.34906C181.726 5.1993 181.489 4.97414 181.326 4.69846Z" fill="#DEDEDD"/>
<path d="M152.877 20.5085V16.9844H155.537V17.747H153.752V18.3904H155.313V19.135H153.752V19.7458H155.537V20.5085H152.877Z" fill="#DEDEDD"/>
<path d="M156.849 19.3262H157.731C157.759 19.4727 157.843 19.6023 157.965 19.6877C158.114 19.7838 158.288 19.8318 158.464 19.825C158.59 19.8281 158.715 19.7982 158.826 19.7383C158.866 19.7141 158.9 19.6796 158.922 19.6383C158.945 19.5971 158.957 19.5505 158.956 19.5034C158.956 19.3443 158.833 19.2431 158.594 19.1961L158.02 19.0841C157.735 19.0372 157.468 18.912 157.25 18.7226C157.165 18.6344 157.1 18.5299 157.057 18.4156C157.014 18.3013 156.995 18.1795 157 18.0576C156.994 17.8975 157.025 17.7382 157.092 17.5925C157.158 17.4468 157.258 17.3189 157.384 17.219C157.673 17.0001 158.03 16.8901 158.392 16.9082C158.513 16.9072 158.634 16.9168 158.753 16.9371C158.884 16.9583 159.011 16.9947 159.133 17.0455C159.264 17.0947 159.387 17.1656 159.494 17.2552C159.605 17.3487 159.695 17.4629 159.762 17.5913C159.838 17.7421 159.884 17.9069 159.896 18.0756H159.025C159.018 18.0065 158.998 17.9393 158.966 17.878C158.933 17.8167 158.888 17.7626 158.834 17.7188C158.781 17.675 158.718 17.6425 158.652 17.6231C158.585 17.6036 158.515 17.5978 158.446 17.6058C158.319 17.6023 158.194 17.6349 158.085 17.6997C158.041 17.7286 158.005 17.7684 157.981 17.8153C157.957 17.8622 157.945 17.9145 157.947 17.9672C157.945 18.01 157.953 18.0527 157.97 18.0918C157.988 18.1308 158.015 18.165 158.049 18.1913C158.146 18.2564 158.258 18.2985 158.374 18.3142L158.866 18.4299C159.151 18.4777 159.42 18.5943 159.65 18.7696C159.741 18.8522 159.812 18.9542 159.858 19.0681C159.905 19.182 159.925 19.3048 159.917 19.4275C159.923 19.5888 159.889 19.7491 159.82 19.895C159.751 20.0409 159.648 20.1681 159.52 20.266C159.213 20.4861 158.841 20.5957 158.464 20.5769C158.271 20.578 158.079 20.5524 157.893 20.5009C157.72 20.4516 157.556 20.376 157.405 20.2768C157.257 20.174 157.134 20.0394 157.044 19.8829C156.947 19.7105 156.888 19.5196 156.87 19.3226" fill="#DEDEDD"/>
<path d="M160.955 17.7759V16.9844H164.064V17.7759H162.947V20.5049H162.072V17.7759H160.955Z" fill="#DEDEDD"/>
<path d="M166.192 19.1565H167.103L166.644 17.989L166.192 19.1565ZM164.746 20.5119L166.239 16.9697H167.056L168.545 20.5119H167.612L167.377 19.9047H165.899L165.668 20.5119H164.746Z" fill="#DEDEDD"/>
<path d="M170.836 19.7172H171.393C171.526 19.7216 171.659 19.6992 171.783 19.6514C171.907 19.6036 172.02 19.5313 172.116 19.4389C172.21 19.3485 172.285 19.2395 172.334 19.1188C172.384 18.9981 172.408 18.8683 172.405 18.7377C172.408 18.6093 172.384 18.4817 172.334 18.3633C172.284 18.2449 172.21 18.1384 172.116 18.051C172.02 17.959 171.907 17.8873 171.782 17.8401C171.658 17.793 171.526 17.7712 171.393 17.7763H170.854L170.836 19.7172ZM169.947 20.5088V16.9883H171.357C171.615 16.9868 171.872 17.0296 172.116 17.1148C172.339 17.195 172.544 17.3178 172.72 17.4763C172.888 17.6306 173.021 17.8192 173.11 18.0293C173.207 18.2576 173.256 18.504 173.251 18.7522C173.254 19.0003 173.206 19.2463 173.11 19.4751C173.021 19.6884 172.888 19.8805 172.72 20.0389C172.543 20.1961 172.338 20.3187 172.116 20.4004C171.873 20.4887 171.616 20.5327 171.357 20.5305L169.947 20.5088Z" fill="#DEDEDD"/>
<path d="M175.553 18.0285C175.376 18.2273 175.277 18.4846 175.277 18.7513C175.277 19.0181 175.376 19.2754 175.553 19.4742C175.644 19.5681 175.753 19.6428 175.873 19.6938C175.993 19.7448 176.122 19.7711 176.253 19.7711C176.383 19.7711 176.512 19.7448 176.633 19.6938C176.753 19.6428 176.861 19.5681 176.952 19.4742C177.13 19.2754 177.228 19.0181 177.228 18.7513C177.228 18.4846 177.13 18.2273 176.952 18.0285C176.862 17.9336 176.753 17.8581 176.633 17.8066C176.513 17.755 176.384 17.7284 176.253 17.7284C176.122 17.7284 175.992 17.755 175.872 17.8066C175.752 17.8581 175.643 17.9336 175.553 18.0285ZM174.646 19.673C174.485 19.3912 174.4 19.0723 174.4 18.7477C174.4 18.4232 174.485 18.1042 174.646 17.8224C174.803 17.5434 175.035 17.3132 175.315 17.1574C175.603 16.9944 175.93 16.9108 176.262 16.9152C176.51 16.9144 176.756 16.9636 176.985 17.0598C177.207 17.1485 177.409 17.2799 177.581 17.4465C177.921 17.7943 178.111 18.2614 178.111 18.7477C178.111 19.2341 177.921 19.7011 177.581 20.0489C177.409 20.2156 177.207 20.347 176.985 20.4357C176.756 20.5319 176.51 20.581 176.262 20.5803C175.93 20.583 175.604 20.4995 175.315 20.3381C175.035 20.1823 174.803 19.9521 174.646 19.673Z" fill="#DEDEDD"/>
<path d="M153.578 12.4372H154.279C154.443 12.4398 154.606 12.409 154.757 12.3469C154.909 12.2848 155.046 12.1925 155.161 12.0758C155.278 11.9669 155.37 11.8346 155.433 11.6877C155.495 11.5407 155.526 11.3823 155.523 11.2227C155.525 11.0659 155.494 10.9103 155.432 10.7664C155.369 10.6224 155.277 10.4934 155.161 10.3878C154.922 10.1655 154.605 10.0461 154.279 10.0553H153.578V12.4372ZM152.96 13.0119V9.49142H154.276C154.61 9.48659 154.94 9.56483 155.237 9.71913C155.515 9.86081 155.748 10.0774 155.909 10.3444C156.071 10.614 156.155 10.923 156.152 11.2372C156.155 11.556 156.071 11.8696 155.909 12.1444C155.748 12.4145 155.516 12.6347 155.237 12.7806C154.941 12.9377 154.611 13.0173 154.276 13.0119H152.96Z" fill="#DEDEDD"/>
<path d="M158.059 9.49121H157.441V13.0117H158.059V9.49121Z" fill="#DEDEDD"/>
<path d="M159.853 13.0117V9.49121H162.365V10.0695H160.471V11.0816H162.137V11.6563H160.471V13.0117H159.853Z" fill="#DEDEDD"/>
<path d="M163.894 13.0117V9.49121H166.449V10.0695H164.515V10.9876H166.243V11.5659H164.515V12.437H166.449V13.0117H163.894Z" fill="#DEDEDD"/>
<path d="M168.725 11.2807H169.532C169.729 11.287 169.923 11.2286 170.085 11.1144C170.153 11.0633 170.209 10.9968 170.248 10.9202C170.286 10.8436 170.306 10.7591 170.306 10.6734C170.306 10.5877 170.286 10.5032 170.248 10.4267C170.209 10.3501 170.153 10.2836 170.085 10.2325C169.923 10.1198 169.729 10.0627 169.532 10.0698H168.725V11.2807ZM168.107 13.012V9.49151H169.553C169.911 9.47665 170.261 9.59226 170.54 9.81681C170.665 9.92143 170.764 10.0528 170.831 10.201C170.898 10.3493 170.931 10.5108 170.927 10.6734C170.932 10.9089 170.861 11.1398 170.724 11.3313C170.586 11.5222 170.393 11.667 170.171 11.7469L171.129 13.012H170.374L169.506 11.8554H168.725V13.012H168.107Z" fill="#DEDEDD"/>
<path d="M172.658 13.0117V9.49121H175.21V10.0695H173.276V10.9876H175.004V11.5659H173.276V12.437H175.21V13.0117H172.658Z" fill="#DEDEDD"/>
<path d="M176.671 13.0117V9.49121H177.141L179.165 11.9201V9.49121H179.783V13.0117H179.295L177.289 10.6442V13.0117H176.671Z" fill="#DEDEDD"/>
<path d="M181.42 10.0695V9.49121H184.489V10.0695H183.267V13.0117H182.649V10.0695H181.42Z" fill="#DEDEDD"/>
<path d="M185.971 13.0117V9.49121H188.522V10.0695H186.589V10.9876H188.316V11.5659H186.589V12.437H188.522V13.0117H185.971Z" fill="#DEDEDD"/>
<path d="M190.084 12.7372C190.083 12.6892 190.092 12.6415 190.11 12.5973C190.129 12.5531 190.157 12.5133 190.192 12.4806C190.264 12.4146 190.358 12.3779 190.456 12.3779C190.554 12.3779 190.648 12.4146 190.72 12.4806C190.755 12.5124 190.783 12.5515 190.802 12.5952C190.821 12.6389 190.83 12.6861 190.828 12.7336C190.829 12.782 190.819 12.83 190.8 12.8747C190.782 12.9195 190.754 12.96 190.72 12.9939C190.685 13.0282 190.644 13.0552 190.599 13.0733C190.553 13.0913 190.505 13.0999 190.456 13.0987C190.408 13.1028 190.359 13.0973 190.313 13.0824C190.268 13.0675 190.225 13.0435 190.189 13.0119C190.154 12.978 190.127 12.9375 190.108 12.8928C190.089 12.8481 190.08 12.8001 190.08 12.7517" fill="#DEDEDD"/>
<path d="M188.28 27.7117C188.28 27.6666 188.289 27.622 188.307 27.5804C188.324 27.5388 188.349 27.5011 188.381 27.4695C188.453 27.403 188.548 27.3668 188.645 27.3683C188.694 27.367 188.743 27.3757 188.788 27.3937C188.833 27.4117 188.875 27.4387 188.909 27.4731C188.943 27.5067 188.97 27.5467 188.988 27.5907C189.007 27.6348 189.016 27.682 189.016 27.7297C189.016 27.7774 189.007 27.8247 188.988 27.8687C188.97 27.9128 188.943 27.9528 188.909 27.9864C188.838 28.054 188.744 28.0917 188.645 28.0917C188.547 28.0917 188.453 28.054 188.381 27.9864C188.347 27.9536 188.319 27.9138 188.301 27.8695C188.283 27.8252 188.275 27.7775 188.277 27.7297" fill="#DEDEDD"/>
<path d="M152.96 28.001V24.4805H155.515V25.0552H153.578V25.9732H155.306V26.5516H153.578V27.4226H155.515V28.001H152.96Z" fill="#DEDEDD"/>
<path d="M157.148 28.001V24.4805H159.664V25.0552H157.766V26.0708H159.436V26.6455H157.766V28.001H157.148Z" fill="#DEDEDD"/>
<path d="M161.8 24.4805H161.179V28.001H161.8V24.4805Z" fill="#DEDEDD"/>
<path d="M169.069 24.4805H168.451V28.001H169.069V24.4805Z" fill="#DEDEDD"/>
<path d="M170.805 28.001V24.4805H173.36V25.0552H171.423V25.9732H173.15V26.5516H171.423V27.4226H173.36V28.001H170.805Z" fill="#DEDEDD"/>
<path d="M175.015 28.001V24.4805H175.485L177.509 26.9058V24.4805H178.13V28.001H177.639L175.636 25.6299V28.001H175.015Z" fill="#DEDEDD"/>
<path d="M179.565 25.0552V24.4805H182.634V25.0552H181.412V28.001H180.794V25.0552H179.565Z" fill="#DEDEDD"/>
<path d="M184.282 28.001V24.4805H186.838V25.0552H184.904V25.9732H186.632V26.5516H184.904V27.4226H186.838V28.001H184.282Z" fill="#DEDEDD"/>
<path d="M166.229 26.8303H166.897C166.795 27.1962 166.573 27.5173 166.267 27.7426C165.961 27.968 165.589 28.0845 165.209 28.0737C165.011 28.0743 164.813 28.045 164.624 27.9869C164.441 27.9307 164.269 27.8452 164.114 27.7339C163.962 27.6249 163.827 27.4947 163.713 27.3472C163.595 27.1953 163.505 27.0241 163.445 26.8411C163.323 26.4581 163.322 26.0466 163.442 25.6628C163.5 25.4796 163.591 25.3082 163.709 25.1568C163.823 25.0073 163.958 24.8757 164.11 24.7664C164.266 24.6563 164.438 24.5721 164.62 24.517C164.81 24.4577 165.007 24.4273 165.206 24.4267C165.614 24.4134 166.014 24.5467 166.333 24.8026C166.607 25.0232 166.804 25.3241 166.897 25.6628H166.232C166.163 25.4955 166.052 25.3487 165.91 25.2363C165.71 25.0834 165.462 25.0055 165.209 25.0158C165.047 25.0129 164.886 25.0434 164.736 25.1056C164.586 25.1678 164.451 25.2603 164.338 25.3773C164.22 25.4937 164.128 25.6329 164.065 25.7864C164.003 25.9399 163.973 26.1045 163.977 26.2701C163.973 26.4352 164.002 26.5994 164.065 26.7524C164.127 26.9053 164.22 27.0439 164.338 27.1592C164.451 27.2764 164.586 27.369 164.736 27.4312C164.886 27.4934 165.047 27.5239 165.209 27.5207C165.462 27.53 165.71 27.4507 165.91 27.2966C166.053 27.1857 166.163 27.0383 166.229 26.8701" fill="#DEDEDD"/>
<path d="M4.10831 13.8972V13.1924H1.24023V16.9876H2.11855V15.605H3.87517V14.9002H2.11855V13.8972H4.10831Z" fill="white"/>
<path d="M7.37962 16.9876H8.3013L6.60432 13.1924H5.73685L4.04528 16.9876H4.94528L5.28142 16.1743H7.04347L7.37962 16.9876ZM5.56335 15.5074L6.16516 14.0544L6.76697 15.5074H5.56335Z" fill="white"/>
<path d="M9.61132 16.2719L11.6878 13.7617V13.1924H8.49445V13.908H10.533L8.45108 16.4183V16.9876H11.7692V16.2719H9.61132Z" fill="white"/>
<path d="M13.2053 16.2827V15.4044H14.9674V14.7213H13.2053V13.8972H15.2005V13.1924H12.3325V16.9876H15.271V16.2827H13.2053Z" fill="white"/>
<path d="M18.5831 13.1924V15.4966L16.6964 13.1924H15.9699V16.9876H16.8373V14.6833L18.7295 16.9876H19.4506V13.1924H18.5831Z" fill="white"/>
<path d="M20.3485 16.9876H22.0726C23.3142 16.9876 24.1654 16.2394 24.1654 15.09C24.1654 13.9406 23.3142 13.1924 22.0726 13.1924H20.3485V16.9876ZM21.2268 16.2665V13.9135H22.0292C22.7828 13.9135 23.2762 14.3635 23.2762 15.09C23.2762 15.8165 22.7828 16.2665 22.0292 16.2665H21.2268Z" fill="white"/>
<path d="M27.6103 16.9876H28.532L26.835 13.1924H25.9676L24.276 16.9876H25.176L25.5122 16.1743H27.2742L27.6103 16.9876ZM25.7941 15.5074L26.3959 14.0544L26.9977 15.5074H25.7941Z" fill="white"/>
</g>
<defs>
<clipPath id="clip0_78_4418">
<rect width="190.12" height="30" fill="white" transform="translate(0.791016)"/>
</clipPath>
</defs>
</svg>
