<svg width="191" height="30" viewBox="0 0 191 30" fill="none" xmlns="http://www.w3.org/2000/svg">
<g clip-path="url(#clip0_2437_36068)">
<path d="M4.10831 13.8962V13.1914H1.24023V16.9866H2.11855V15.6041H3.87517V14.8992H2.11855V13.8962H4.10831Z" fill="#3C3C3B"/>
<path d="M7.37962 16.9866H8.3013L6.60432 13.1914H5.73685L4.04528 16.9866H4.94528L5.28142 16.1733H7.04347L7.37962 16.9866ZM5.56335 15.5065L6.16516 14.0535L6.76697 15.5065H5.56335Z" fill="#3C3C3B"/>
<path d="M9.61132 16.2709L11.6878 13.7607V13.1914H8.49445V13.9071H10.533L8.45108 16.4173V16.9866H11.7692V16.2709H9.61132Z" fill="#3C3C3B"/>
<path d="M13.2053 16.2818V15.4035H14.9674V14.7203H13.2053V13.8962H15.2005V13.1914H12.3325V16.9866H15.271V16.2818H13.2053Z" fill="#3C3C3B"/>
<path d="M18.5831 13.1914V15.4956L16.6964 13.1914H15.9699V16.9866H16.8373V14.6824L18.7295 16.9866H19.4506V13.1914H18.5831Z" fill="#3C3C3B"/>
<path d="M20.3485 16.9866H22.0726C23.3142 16.9866 24.1654 16.2384 24.1654 15.089C24.1654 13.9396 23.3142 13.1914 22.0726 13.1914H20.3485V16.9866ZM21.2268 16.2655V13.9125H22.0292C22.7828 13.9125 23.2762 14.3625 23.2762 15.089C23.2762 15.8155 22.7828 16.2655 22.0292 16.2655H21.2268Z" fill="#3C3C3B"/>
<path d="M27.6103 16.9866H28.532L26.835 13.1914H25.9676L24.276 16.9866H25.176L25.5122 16.1733H27.2742L27.6103 16.9866ZM25.7941 15.5065L26.3959 14.0535L26.9977 15.5065H25.7941Z" fill="#3C3C3B"/>
<g clip-path="url(#clip1_2437_36068)">
<path d="M66.3115 0.289062H36.7905V29.8101H66.3115V0.289062Z" fill="#E3E3E3"/>
<path d="M55.8436 11.4453L51.5332 17.4582L47.259 11.4453L38.6743 23.4348H47.259L51.5332 17.4582L55.8436 23.4348H64.4282L55.8436 11.4453Z" fill="#E30613"/>
<path d="M47.2588 23.4337L51.533 17.457L55.8434 23.4337H47.2588Z" fill="#E4ADB5"/>
<path d="M51.533 5.46875L47.2588 11.4454L51.533 17.4583L55.8434 11.4454L51.533 5.46875Z" fill="#AE0F0A"/>
<path d="M85.401 13.4015V6.80904L82.467 11.3368H80.6559L77.7219 6.77282V13.4015H74.4619V0.289062H76.8888L81.5614 7.27993L86.1979 0.289062H88.661V13.4015H85.401Z" fill="#3C3C3B"/>
<path d="M94.8547 0.289062H91.5947V13.4015H94.8547V0.289062Z" fill="#3C3C3B"/>
<path d="M107.351 13.4015L101.085 6.19326V13.4015H97.7886V0.289062H100.288L106.627 7.67837V0.289062H109.887V13.4015H107.351Z" fill="#3C3C3B"/>
<path d="M114.596 13.4015H111.119L116.661 0.289062H119.848L125.39 13.4015H121.913L121.007 11.1557H115.465L114.596 13.4015ZM116.552 8.36659H119.957L118.254 4.01994L116.552 8.36659Z" fill="#3C3C3B"/>
<path d="M136.764 4.34665H133.504C133.323 3.36865 132.707 2.68043 131.367 2.68043C130.244 2.68043 129.483 3.15132 129.483 3.98443C129.483 4.70887 129.99 4.99865 131.004 5.21598L132.852 5.65065C135.242 6.15776 136.8 7.13575 136.8 9.38152C136.8 11.9895 134.627 13.6557 131.367 13.6557C128.396 13.6557 125.752 12.2793 125.426 9.0193H128.686C128.904 10.1784 129.918 10.8666 131.439 10.8666C132.671 10.8666 133.286 10.432 133.286 9.70752C133.286 9.27285 132.997 8.80197 131.91 8.58463L129.737 8.11375C127.165 7.57042 125.933 6.33887 125.933 4.23798C125.933 1.66622 128.07 0 131.149 0C133.286 0 136.438 0.833108 136.764 4.34665Z" fill="#3C3C3B"/>
<path d="M85.437 29.8123L85.2921 28.2186C84.3504 29.3777 82.9739 30.0659 81.1266 30.0659C77.0335 30.0659 74.1357 27.1319 74.1357 23.3648C74.1357 19.2717 77.1422 16.4102 81.1628 16.4102C84.3504 16.4102 87.1395 18.2213 87.719 21.3364H84.3142C83.7346 19.815 82.4306 19.3804 81.2353 19.3804C78.9895 19.3804 77.4682 20.9741 77.4682 23.2924C77.4682 25.357 78.9533 27.0232 81.3077 27.0232C82.829 27.0232 83.9882 26.2626 84.6402 25.031L80.8368 24.9948V22.423H87.8639V29.8123H85.437Z" fill="#3C3C3B"/>
<path d="M90.2544 16.6641V29.8127H100.179V26.9511H93.5144V24.6691H99.3461V21.9163H93.5144V19.4894H100.179V16.6641H90.2544Z" fill="#3C3C3B"/>
<path d="M105.83 29.8127H102.57V16.6641H108.33C111.59 16.6641 113.763 18.4389 113.763 21.2643C113.763 23.1116 112.821 24.5605 111.264 25.3211L114.27 29.7765H110.322L107.895 25.9731H105.867V29.8127H105.83ZM110.503 21.2643C110.503 20.2138 109.489 19.5256 108.257 19.5256H105.83V23.0392H108.257C109.525 23.0754 110.503 22.3509 110.503 21.2643Z" fill="#3C3C3B"/>
<path d="M146.254 20.754H142.958C142.777 19.776 142.161 19.0878 140.821 19.0878C139.698 19.0878 138.937 19.5586 138.937 20.3917C138.937 21.1162 139.444 21.406 140.459 21.6233L142.306 22.058C144.697 22.5651 146.254 23.5431 146.254 25.7888C146.254 28.3968 144.081 30.063 140.821 30.063C137.851 30.063 135.206 28.6866 134.88 25.4266H138.14C138.358 26.5857 139.372 27.2739 140.893 27.2739C142.125 27.2739 142.741 26.8393 142.741 26.1148C142.741 25.6802 142.487 25.2093 141.364 24.992L139.191 24.5211C136.619 23.9777 135.387 22.7462 135.387 20.6453C135.387 18.0373 137.525 16.3711 140.603 16.3711C142.741 16.3711 145.928 17.2042 146.254 20.754Z" fill="#3C3C3B"/>
<path d="M133.141 16.6641H129.881V29.7765H133.141V16.6641Z" fill="#3C3C3B"/>
<path d="M121.804 20.3949L123.507 24.7416H120.102L121.804 20.3949ZM120.247 16.6641L114.668 29.8127H118.146L119.015 27.5307H124.593L125.499 29.7765H128.94L123.398 16.6641H120.247Z" fill="#3C3C3B"/>
<path d="M152.773 3.80152C152.773 3.4393 152.846 3.1133 153.027 2.82352C153.208 2.53374 153.425 2.31641 153.715 2.17152C154.005 2.02663 154.331 1.91797 154.693 1.91797C154.983 1.91797 155.237 1.95419 155.49 2.06286C155.744 2.17152 155.961 2.31641 156.106 2.53374C156.287 2.75108 156.396 2.96841 156.432 3.25819H155.49C155.454 3.14952 155.418 3.07708 155.345 3.00463C155.273 2.93219 155.2 2.89597 155.128 2.82352C155.055 2.7873 154.983 2.75108 154.911 2.75108C154.838 2.75108 154.766 2.71485 154.657 2.71485C154.367 2.71485 154.114 2.82352 153.933 3.00463C153.751 3.18574 153.643 3.4393 153.643 3.7653C153.643 4.05507 153.751 4.2724 153.933 4.48974C154.114 4.67085 154.367 4.77951 154.657 4.77951C154.874 4.77951 155.055 4.74329 155.2 4.63463C155.345 4.52596 155.49 4.41729 155.563 4.23618H154.548V3.54796H156.432V5.54018H155.78L155.744 5.10551C155.49 5.43151 155.092 5.61262 154.621 5.61262C154.259 5.61262 153.933 5.54018 153.643 5.35907C153.353 5.21418 153.136 4.99685 152.991 4.70707C152.882 4.45351 152.773 4.12752 152.773 3.80152Z" fill="#706F6F"/>
<path d="M159.003 3.04085C158.822 3.25819 158.714 3.47552 158.714 3.7653C158.714 4.05507 158.822 4.2724 159.003 4.48974C159.185 4.70707 159.438 4.77951 159.692 4.77951C159.981 4.77951 160.199 4.67085 160.38 4.48974C160.561 4.30863 160.67 4.05507 160.67 3.7653C160.67 3.47552 160.561 3.25819 160.38 3.04085C160.199 2.82352 159.945 2.75108 159.692 2.75108C159.402 2.75108 159.185 2.85974 159.003 3.04085ZM158.062 4.70707C157.881 4.41729 157.808 4.12752 157.808 3.7653C157.808 3.4393 157.881 3.1133 158.062 2.82352C158.207 2.53374 158.46 2.31641 158.75 2.17152C159.04 2.02663 159.366 1.91797 159.692 1.91797C159.945 1.91797 160.199 1.95419 160.416 2.06286C160.633 2.17152 160.851 2.28019 160.996 2.4613C161.177 2.64241 161.285 2.82352 161.394 3.04085C161.503 3.25819 161.539 3.51174 161.539 3.7653C161.539 4.01885 161.503 4.2724 161.394 4.48974C161.285 4.70707 161.177 4.9244 160.996 5.06929C160.815 5.2504 160.633 5.35907 160.416 5.46773C160.199 5.5764 159.945 5.61262 159.692 5.61262C159.329 5.61262 159.04 5.54018 158.75 5.35907C158.46 5.21418 158.243 4.96062 158.062 4.70707Z" fill="#706F6F"/>
<path d="M162.517 1.99219H163.459L164.473 4.38285L165.487 1.99219H166.429L164.908 5.54195H164.038L162.517 1.99219Z" fill="#706F6F"/>
<path d="M167.806 5.54195V1.99219H170.45V2.75285H168.675V3.40485H170.233V4.16551H168.675V4.78129H170.45V5.54195H167.806Z" fill="#706F6F"/>
<path d="M172.877 3.73085H173.529C173.71 3.73085 173.855 3.69463 173.963 3.58596C174.072 3.51351 174.144 3.36863 174.144 3.22374C174.144 3.07885 174.072 2.97018 173.963 2.89774C173.855 2.8253 173.71 2.75285 173.529 2.75285H172.877V3.73085ZM172.007 5.54195V1.99219H173.529C173.963 1.99219 174.326 2.10085 174.579 2.31819C174.833 2.53552 174.978 2.86152 174.978 3.22374C174.978 3.44107 174.941 3.6584 174.833 3.83951C174.724 4.02062 174.579 4.16551 174.398 4.27418L175.231 5.50573H174.217L173.529 4.49151H172.877V5.50573H172.007V5.54195Z" fill="#706F6F"/>
<path d="M176.535 5.54195V1.99219H177.223L178.926 3.9844V1.99219H179.795V5.54195H179.107L177.404 3.58596V5.54195H176.535Z" fill="#706F6F"/>
<path d="M182.294 3.04085C182.113 3.25819 182.005 3.47552 182.005 3.7653C182.005 4.05507 182.113 4.2724 182.294 4.48974C182.475 4.70707 182.729 4.77951 182.983 4.77951C183.272 4.77951 183.49 4.67085 183.671 4.48974C183.852 4.30863 183.961 4.05507 183.961 3.7653C183.961 3.47552 183.852 3.25819 183.671 3.04085C183.49 2.82352 183.236 2.75108 182.983 2.75108C182.729 2.75108 182.475 2.85974 182.294 3.04085ZM181.389 4.70707C181.244 4.41729 181.135 4.12752 181.135 3.7653C181.135 3.4393 181.208 3.1133 181.389 2.82352C181.534 2.53374 181.787 2.31641 182.077 2.17152C182.367 2.02663 182.693 1.91797 183.019 1.91797C183.272 1.91797 183.526 1.95419 183.743 2.06286C183.961 2.17152 184.178 2.28019 184.323 2.4613C184.504 2.64241 184.613 2.82352 184.721 3.04085C184.83 3.25819 184.866 3.51174 184.866 3.7653C184.866 4.01885 184.83 4.2724 184.721 4.48974C184.613 4.70707 184.504 4.9244 184.323 5.06929C184.142 5.2504 183.961 5.35907 183.743 5.46773C183.526 5.5764 183.272 5.61262 183.019 5.61262C182.657 5.61262 182.367 5.54018 182.077 5.35907C181.751 5.21418 181.534 4.96062 181.389 4.70707Z" fill="#706F6F"/>
<path d="M152.882 20.537V17.0234H155.527V17.7841H153.752V18.4361H155.309V19.1605H153.752V19.7763H155.527V20.537H152.882Z" fill="#706F6F"/>
<path d="M156.867 19.3789H157.736C157.772 19.5238 157.845 19.6687 157.99 19.7412C158.134 19.8498 158.279 19.886 158.497 19.886C158.642 19.886 158.786 19.8498 158.859 19.8136C158.931 19.7412 159.004 19.6687 159.004 19.5963C159.004 19.4514 158.895 19.3427 158.642 19.2703L158.062 19.1616C157.7 19.0892 157.446 18.9805 157.301 18.7994C157.12 18.6183 157.048 18.4009 157.048 18.1474C157.048 17.7852 157.193 17.5316 157.446 17.3143C157.7 17.0969 158.026 16.9883 158.46 16.9883C158.569 16.9883 158.714 16.9883 158.823 17.0245C158.931 17.0607 159.076 17.0969 159.185 17.1332C159.33 17.1694 159.438 17.2418 159.547 17.3505C159.656 17.4229 159.728 17.5316 159.801 17.6765C159.873 17.8214 159.909 17.9663 159.946 18.1474H159.076C159.004 17.8214 158.823 17.6765 158.497 17.6765C158.352 17.6765 158.207 17.7127 158.134 17.7852C158.026 17.8576 157.99 17.9301 157.99 18.0387C157.99 18.1474 158.026 18.2198 158.098 18.2561C158.171 18.2923 158.279 18.3647 158.424 18.3647L158.859 18.4734C159.221 18.5458 159.475 18.6545 159.656 18.7994C159.837 18.9443 159.909 19.1616 159.909 19.4514C159.909 19.8136 159.764 20.0672 159.511 20.2845C159.257 20.5018 158.895 20.6105 158.46 20.6105C158.243 20.6105 158.062 20.5743 157.881 20.538C157.7 20.5018 157.555 20.4294 157.41 20.3207C157.265 20.212 157.156 20.1034 157.048 19.9223C156.939 19.7774 156.867 19.5963 156.867 19.3789Z" fill="#706F6F"/>
<path d="M160.96 17.8203V17.0234H164.075V17.8203H162.952V20.537H162.083V17.8203H160.96Z" fill="#706F6F"/>
<path d="M166.212 19.1978H167.118L166.647 18.0387L166.212 19.1978ZM164.763 20.538L166.248 16.9883H167.081L168.566 20.538H167.625L167.371 19.9223H165.886L165.669 20.538H164.763Z" fill="#706F6F"/>
<path d="M170.885 19.7763H171.428C171.718 19.7763 171.971 19.6676 172.152 19.4865C172.333 19.3054 172.442 19.0519 172.442 18.7983C172.442 18.5085 172.333 18.2912 172.152 18.1101C171.971 17.929 171.718 17.8203 171.428 17.8203H170.885V19.7763ZM169.979 20.537V17.0234H171.392C171.681 17.0234 171.935 17.0597 172.152 17.1683C172.406 17.2408 172.587 17.3857 172.768 17.5305C172.949 17.6754 173.058 17.8565 173.167 18.0739C173.275 18.2912 173.311 18.5448 173.311 18.7983C173.311 19.0519 173.275 19.3054 173.167 19.5228C173.058 19.7401 172.949 19.9212 172.768 20.1023C172.587 20.2472 172.406 20.3921 172.152 20.4645C171.899 20.537 171.645 20.6094 171.392 20.6094H169.979V20.537Z" fill="#706F6F"/>
<path d="M175.594 18.0732C175.413 18.2905 175.304 18.5078 175.304 18.7976C175.304 19.0874 175.413 19.3047 175.594 19.5221C175.775 19.7394 176.028 19.8118 176.282 19.8118C176.572 19.8118 176.789 19.7032 176.97 19.5221C177.151 19.3409 177.26 19.0874 177.26 18.7976C177.26 18.5078 177.151 18.2905 176.97 18.0732C176.789 17.8558 176.535 17.7834 176.282 17.7834C176.028 17.7472 175.775 17.8558 175.594 18.0732ZM174.688 19.7032C174.543 19.4134 174.435 19.1236 174.435 18.7614C174.435 18.4354 174.507 18.1094 174.688 17.8196C174.833 17.5298 175.087 17.3125 175.376 17.1676C175.666 17.0227 175.992 16.9141 176.318 16.9141C176.572 16.9141 176.825 16.9503 177.043 17.059C177.26 17.1676 177.477 17.2763 177.622 17.4574C177.803 17.6385 177.912 17.8196 178.021 18.0369C178.129 18.2543 178.165 18.5078 178.165 18.7614C178.165 19.0149 178.129 19.2685 178.021 19.4858C177.912 19.7032 177.803 19.9205 177.622 20.0654C177.441 20.2103 177.26 20.3552 177.043 20.4638C176.825 20.5725 176.572 20.6087 176.318 20.6087C175.956 20.6087 175.666 20.5363 175.376 20.3552C175.05 20.2103 174.833 19.9929 174.688 19.7032Z" fill="#706F6F"/>
<path d="M153.57 12.4613H154.259C154.621 12.4613 154.911 12.3527 155.128 12.0991C155.381 11.8818 155.49 11.592 155.49 11.2298C155.49 10.9038 155.381 10.614 155.128 10.3967C154.874 10.1793 154.585 10.0707 154.259 10.0707H153.57V12.4613ZM152.955 13.0409V9.52734H154.259C154.621 9.52734 154.947 9.59979 155.237 9.74468C155.526 9.88956 155.744 10.1069 155.925 10.3605C156.07 10.614 156.178 10.94 156.178 11.266C156.178 11.592 156.106 11.918 155.925 12.1716C155.78 12.4251 155.526 12.6424 155.237 12.8236C154.947 12.9684 154.621 13.0409 154.259 13.0409H152.955Z" fill="#706F6F"/>
<path d="M158.062 9.52734H157.446V13.0409H158.062V9.52734Z" fill="#706F6F"/>
<path d="M159.873 13.0409V9.52734H162.372V10.1069H160.489V11.1211H162.155V11.7007H160.489V13.0409H159.873Z" fill="#706F6F"/>
<path d="M163.93 13.0409V9.52734H166.465V10.1069H164.545V11.0124H166.248V11.592H164.545V12.4613H166.465V13.0409H163.93Z" fill="#706F6F"/>
<path d="M168.748 11.3022H169.544C169.762 11.3022 169.943 11.2298 170.088 11.1211C170.233 11.0125 170.305 10.8676 170.305 10.6865C170.305 10.5053 170.233 10.3605 170.088 10.2518C169.943 10.1431 169.762 10.0707 169.544 10.0707H168.748V11.3022ZM168.132 13.0409V9.52734H169.581C169.979 9.52734 170.305 9.63601 170.559 9.85334C170.812 10.0707 170.957 10.3605 170.957 10.7227C170.957 10.9762 170.885 11.1936 170.74 11.3747C170.595 11.5558 170.414 11.7007 170.196 11.7731L171.174 13.0409H170.414L169.544 11.8818H168.748V13.0409H168.132Z" fill="#706F6F"/>
<path d="M172.696 13.0409V9.52734H175.268V10.1069H173.312V11.0124H175.05V11.592H173.312V12.4613H175.268V13.0409H172.696Z" fill="#706F6F"/>
<path d="M176.716 13.0409V9.52734H177.187L179.216 11.9542V9.52734H179.831V13.0409H179.361L177.332 10.6502V13.0409H176.716Z" fill="#706F6F"/>
<path d="M181.461 10.1069V9.52734H184.54V10.1069H183.309V13.0409H182.693V10.1069H181.461Z" fill="#706F6F"/>
<path d="M186.025 13.0409V9.52734H188.597V10.1069H186.641V11.0124H188.38V11.592H186.641V12.4613H188.597V13.0409H186.025Z" fill="#706F6F"/>
<path d="M190.155 12.7528C190.155 12.6442 190.191 12.5717 190.263 12.4993C190.336 12.4268 190.408 12.3906 190.517 12.3906C190.626 12.3906 190.698 12.4268 190.771 12.4993C190.843 12.5717 190.879 12.6442 190.879 12.7528C190.879 12.8615 190.843 12.934 190.771 13.0064C190.698 13.0788 190.626 13.1151 190.517 13.1151C190.408 13.1151 190.336 13.0788 190.263 13.0064C190.191 12.9702 190.155 12.8615 190.155 12.7528Z" fill="#706F6F"/>
<path d="M188.344 27.7841C188.344 27.6754 188.38 27.603 188.452 27.5305C188.525 27.4581 188.597 27.4219 188.706 27.4219C188.815 27.4219 188.887 27.4581 188.96 27.5305C189.032 27.603 189.068 27.6754 189.068 27.7841C189.068 27.8928 189.032 27.9652 188.96 28.0377C188.887 28.1101 188.815 28.1463 188.706 28.1463C188.597 28.1463 188.525 28.1101 188.452 28.0377C188.38 27.9652 188.344 27.8928 188.344 27.7841Z" fill="#706F6F"/>
<path d="M152.955 28.0732V24.5234H155.526V25.103H153.57V26.0448H155.309V26.6243H153.57V27.4937H155.526V28.0732H152.955Z" fill="#706F6F"/>
<path d="M157.156 28.0732V24.5234H159.656V25.103H157.772V26.1172H159.438V26.6968H157.772V28.0732H157.156Z" fill="#706F6F"/>
<path d="M161.793 24.5234H161.177V28.037H161.793V24.5234Z" fill="#706F6F"/>
<path d="M169.109 24.5234H168.494V28.037H169.109V24.5234Z" fill="#706F6F"/>
<path d="M170.848 28.0732V24.5234H173.384V25.103H171.464V26.0448H173.203V26.6243H171.464V27.4937H173.384V28.0732H170.848Z" fill="#706F6F"/>
<path d="M175.05 28.0732V24.5234H175.521L177.55 26.9503V24.5234H178.165V28.0732H177.695L175.666 25.6825V28.0732H175.05Z" fill="#706F6F"/>
<path d="M179.614 25.103V24.5234H182.693V25.103H181.462V28.0732H180.846V25.103H179.614Z" fill="#706F6F"/>
<path d="M184.359 28.0732V24.5234H186.895V25.103H184.975V26.0448H186.714V26.6243H184.975V27.4937H186.895V28.0732H184.359Z" fill="#706F6F"/>
<path d="M166.248 26.8772H166.9C166.791 27.2394 166.61 27.4929 166.357 27.7103C166.031 27.9638 165.668 28.1087 165.197 28.1087C164.98 28.1087 164.799 28.0725 164.618 28.0363C164.437 27.9638 164.256 27.8914 164.111 27.7827C163.966 27.674 163.821 27.5292 163.712 27.3843C163.604 27.2394 163.495 27.0583 163.459 26.8772C163.386 26.6961 163.35 26.4787 163.35 26.2614C163.35 26.0441 163.386 25.8629 163.459 25.6456C163.531 25.4645 163.604 25.2834 163.712 25.1385C163.821 24.9936 163.966 24.8487 164.111 24.7401C164.256 24.6314 164.437 24.5589 164.618 24.4865C164.799 24.4141 165.016 24.4141 165.197 24.4141C165.632 24.4141 166.031 24.559 166.357 24.8125C166.61 25.0298 166.791 25.3196 166.9 25.6818H166.248C166.175 25.5007 166.067 25.3558 165.922 25.2472C165.741 25.1023 165.487 25.0298 165.234 25.0298C164.871 25.0298 164.582 25.1385 164.364 25.3921C164.147 25.6094 164.002 25.9354 164.002 26.2976C164.002 26.6598 164.111 26.9496 164.364 27.2032C164.582 27.4205 164.871 27.5654 165.234 27.5654C165.523 27.5654 165.741 27.4929 165.922 27.3481C166.067 27.2032 166.175 27.0583 166.248 26.8772Z" fill="#706F6F"/>
</g>
</g>
<defs>
<clipPath id="clip0_2437_36068">
<rect width="190.12" height="30" fill="white" transform="translate(0.790527)"/>
</clipPath>
<clipPath id="clip1_2437_36068">
<rect width="154.125" height="30.0643" fill="white" transform="translate(36.7905)"/>
</clipPath>
</defs>
</svg>
