<svg width="20" height="20" viewBox="0 0 20 20" fill="none" xmlns="http://www.w3.org/2000/svg">
<path d="M8.85433 4.63819L3.17957 14.0114C3.06257 14.2118 3.00066 14.4391 3.00001 14.6706C2.99935 14.9021 3.05997 15.1297 3.17583 15.3308C3.2917 15.532 3.45877 15.6995 3.66042 15.8169C3.86207 15.9343 4.09128 15.9975 4.32524 16H15.6748C15.9087 15.9975 16.1379 15.9343 16.3396 15.8169C16.5412 15.6995 16.7083 15.532 16.8242 15.3308C16.94 15.1297 17.0006 14.9021 17 14.6706C16.9993 14.4391 16.9374 14.2118 16.8204 14.0114L11.1457 4.63819C11.0262 4.44337 10.8581 4.2823 10.6574 4.17051C10.4567 4.05873 10.2303 4 10 4C9.7697 4 9.54329 4.05873 9.34262 4.17051C9.14194 4.2823 8.97377 4.44337 8.85433 4.63819Z" stroke="#666666" stroke-width="2" stroke-linecap="round" stroke-linejoin="round"/>
<path d="M10 8.05908L10 10.0379" stroke="#666666" stroke-width="2" stroke-linecap="round" stroke-linejoin="round"/>
<path d="M9.99902 12.6855V13.1855" stroke="#666666" stroke-width="2" stroke-linecap="round" stroke-linejoin="round"/>
</svg>
