<svg width="20" height="20" viewBox="0 0 20 20" fill="none" xmlns="http://www.w3.org/2000/svg">
<path d="M11.8361 7.18835C12.2267 6.79782 12.2267 6.16466 11.8361 5.77413C11.4456 5.38361 10.8124 5.38361 10.4219 5.77413L11.8361 7.18835ZM5.99569 13.0146L5.10127 13.4618C5.14933 13.5579 5.21259 13.6457 5.28859 13.7217L5.99569 13.0146ZM6.46236 13.4812L5.75525 14.1883C5.83121 14.2643 5.91891 14.3275 6.01499 14.3756L6.46236 13.4812ZM4.1286 9.74791L3.42132 9.04098L4.1286 9.74791ZM4.12937 15.3479L4.83648 14.6408L4.12937 15.3479ZM16.5028 9.98835C16.8933 9.59783 16.8933 8.96466 16.5028 8.57414C16.1123 8.18362 15.4791 8.18362 15.0886 8.57414L16.5028 9.98835ZM10.4219 5.77413C9.79969 6.39636 8.81969 7.37636 7.90192 8.29413C6.98414 9.21191 6.12859 10.0675 5.75525 10.4408L7.16947 11.855C7.5428 11.4817 8.39836 10.6261 9.31613 9.70835C10.2339 8.79057 11.2139 7.81057 11.8361 7.18835L10.4219 5.77413ZM5.75525 10.4408C4.66603 11.53 4.77853 12.8163 5.10127 13.4618L6.89012 12.5674C6.90297 12.5931 6.86446 12.5134 6.88261 12.3714C6.89749 12.2551 6.95375 12.0707 7.16947 11.855L5.75525 10.4408ZM5.28859 13.7217L5.75525 14.1883L7.16947 12.7741L6.7028 12.3075L5.28859 13.7217ZM6.01499 14.3756C6.66053 14.6985 7.94657 14.8108 9.03571 13.7217L7.6215 12.3075C7.40573 12.5232 7.22139 12.5795 7.10519 12.5943C6.96342 12.6125 6.88389 12.574 6.90974 12.5869L6.01499 14.3756ZM9.03571 13.7217C9.50238 13.255 10.7857 11.9717 12.0107 10.7467C13.2357 9.52168 14.4024 8.35501 14.6357 8.12168L13.2215 6.70747C12.9882 6.9408 11.8215 8.10747 10.5965 9.33247C9.37149 10.5575 8.08816 11.8408 7.6215 12.3075L9.03571 13.7217ZM14.6357 8.12168C15.2469 7.51049 15.6923 6.67345 15.7517 5.73588C15.8129 4.77155 15.4585 3.79613 14.6364 2.97412L13.2222 4.38838C13.6661 4.83228 13.7781 5.25682 13.7557 5.60932C13.7317 5.98858 13.5437 6.38524 13.2215 6.70747L14.6357 8.12168ZM14.6364 2.97412C13.7114 2.0492 12.5384 1.91379 11.6248 2.04115C11.166 2.10511 10.7432 2.23722 10.3935 2.39195C10.0621 2.53859 9.72664 2.73645 9.48886 2.97423L10.9031 4.38844C10.8986 4.39289 10.9882 4.31583 11.2028 4.2209C11.399 4.13407 11.643 4.05796 11.901 4.022C12.4209 3.94951 12.8812 4.04739 13.2222 4.38838L14.6364 2.97412ZM9.48886 2.97423C9.02248 3.4406 3.88796 8.57411 3.42132 9.04098L4.83588 10.4548C5.30234 9.98816 10.4361 4.8554 10.9031 4.38844L9.48886 2.97423ZM3.42132 9.04098C2.79122 9.67139 2.20007 10.7816 2.04164 12.0259C1.87731 13.3164 2.17522 14.808 3.42226 16.055L4.83648 14.6408C4.0952 13.8995 3.92641 13.0577 4.02562 12.2785C4.13072 11.4531 4.53334 10.7575 4.83588 10.4548L3.42132 9.04098ZM3.42226 16.055C4.66927 17.302 6.16068 17.6 7.45116 17.4355C8.69536 17.2769 9.80548 16.6855 10.4359 16.055L9.02173 14.6408C8.71886 14.9437 8.02341 15.3464 7.19829 15.4516C6.41944 15.5508 5.57779 15.3821 4.83648 14.6408L3.42226 16.055ZM10.4359 16.055C10.6226 15.8684 11.7115 14.7795 12.9677 13.5234C14.2239 12.2673 15.6472 10.8439 16.5028 9.98835L15.0886 8.57414C14.233 9.42969 12.8097 10.853 11.5535 12.1091C10.2974 13.3652 9.20841 14.4541 9.02173 14.6408L10.4359 16.055Z" fill="white"/>
</svg>
