<svg width="20" height="20" viewBox="0 0 20 20" fill="none" xmlns="http://www.w3.org/2000/svg">
<path d="M5 4H11.1538C11.9699 4 12.7525 4.31607 13.3296 4.87868C13.9066 5.44129 14.2308 6.20435 14.2308 7C14.2308 7.79565 13.9066 8.55871 13.3296 9.12132C12.7525 9.68393 11.9699 10 11.1538 10H5V4Z" stroke="#666666" stroke-width="2" stroke-linecap="round" stroke-linejoin="round"/>
<path d="M5 10H11.9231C12.7391 10 13.5218 10.3161 14.0988 10.8787C14.6758 11.4413 15 12.2044 15 13C15 13.7956 14.6758 14.5587 14.0988 15.1213C13.5218 15.6839 12.7391 16 11.9231 16H5V10Z" stroke="#666666" stroke-width="2" stroke-linecap="round" stroke-linejoin="round"/>
</svg>
