<svg width="20" height="20" viewBox="0 0 20 20" fill="none" xmlns="http://www.w3.org/2000/svg">
<path d="M6 7.00015H6.50002L6.80002 6.60012L8.00002 5H12L13.2 6.6L13.5 7H14H15.25C15.6512 7 16 7.34012 16 7.76823V14.259C16 14.6668 15.6713 15 15.25 15H4.75C4.33541 15 4 14.6646 4 14.25V7.75919C4 7.33806 4.34221 7.00015 4.75 7.00015H6Z" stroke="#666666" stroke-width="2"/>
<path d="M8 10C8 8.8955 8.89542 8 10 8C11.1046 8 12 8.89538 12 10C12 11.1046 11.1046 12 10 12C8.89553 12 8 11.1045 8 10Z" stroke="#666666" stroke-width="2"/>
</svg>
