<svg width="20" height="20" viewBox="0 0 20 20" fill="none" xmlns="http://www.w3.org/2000/svg">
<path d="M17 9.61112C17.0027 10.6377 16.7628 11.6504 16.3 12.5667C15.7512 13.6647 14.9076 14.5882 13.8636 15.2339C12.8195 15.8795 11.6164 16.2217 10.3889 16.2222C9.36231 16.2249 8.34964 15.9851 7.43333 15.5222L3 17L4.47778 12.5667C4.01494 11.6504 3.7751 10.6377 3.77778 9.61112C3.77825 8.3836 4.12047 7.18046 4.76611 6.13644C5.41175 5.09243 6.3353 4.24879 7.43333 3.70002C8.34964 3.23719 9.36231 2.99735 10.3889 3.00002H10.7778C12.3989 3.08946 13.9301 3.77372 15.0782 4.9218C16.2263 6.06987 16.9105 7.60108 17 9.22223V9.61112Z" stroke="#666666" stroke-width="2" stroke-linecap="round" stroke-linejoin="round"/>
</svg>
