<svg width="20" height="20" viewBox="0 0 20 20" fill="none" xmlns="http://www.w3.org/2000/svg">
<path d="M14.5004 7.2C15.6602 7.2 16.6004 6.2598 16.6004 5.1C16.6004 3.9402 15.6602 3 14.5004 3C13.3406 3 12.4004 3.9402 12.4004 5.1C12.4004 6.2598 13.3406 7.2 14.5004 7.2Z" stroke="#666666" stroke-width="2" stroke-linecap="round" stroke-linejoin="round"/>
<path d="M6.1 12.0999C7.2598 12.0999 8.2 11.1597 8.2 9.9999C8.2 8.8401 7.2598 7.8999 6.1 7.8999C4.9402 7.8999 4 8.8401 4 9.9999C4 11.1597 4.9402 12.0999 6.1 12.0999Z" stroke="#666666" stroke-width="2" stroke-linecap="round" stroke-linejoin="round"/>
<path d="M14.5004 16.9998C15.6602 16.9998 16.6004 16.0596 16.6004 14.8998C16.6004 13.74 15.6602 12.7998 14.5004 12.7998C13.3406 12.7998 12.4004 13.74 12.4004 14.8998C12.4004 16.0596 13.3406 16.9998 14.5004 16.9998Z" stroke="#666666" stroke-width="2" stroke-linecap="round" stroke-linejoin="round"/>
<path d="M7.91309 11.0566L12.6941 13.8426" stroke="#666666" stroke-width="2" stroke-linecap="round" stroke-linejoin="round"/>
<path d="M12.6871 6.15674L7.91309 8.94274" stroke="#666666" stroke-width="2" stroke-linecap="round" stroke-linejoin="round"/>
</svg>
