<svg width="20" height="20" viewBox="0 0 20 20" fill="none" xmlns="http://www.w3.org/2000/svg">
<path d="M7.50879 5.1864C7.50879 4.87175 7.63378 4.56998 7.85628 4.34749C8.07877 4.125 8.38054 4 8.69519 4H13.4408L17 7.5592V14.6776C17 14.9923 16.875 15.294 16.6525 15.5165C16.43 15.739 16.1283 15.864 15.8136 15.864H8.69519C8.38054 15.864 8.07877 15.739 7.85628 15.5165C7.63378 15.294 7.50879 14.9923 7.50879 14.6776V9.22028" stroke="#666666" stroke-width="2" stroke-linecap="round" stroke-linejoin="round"/>
<path d="M13.4395 4V7.5592H16.9987" stroke="#666666" stroke-width="2" stroke-linecap="round" stroke-linejoin="round"/>
<path d="M14.6265 10.5254H9.88086" stroke="#666666" stroke-width="2" stroke-linecap="round" stroke-linejoin="round"/>
<path d="M14.6265 12.8979H9.88086" stroke="#666666" stroke-width="2" stroke-linecap="round" stroke-linejoin="round"/>
<path d="M11.0673 8.15234H10.4741H9.88086" stroke="#666666" stroke-width="2" stroke-linecap="round" stroke-linejoin="round"/>
<path d="M3 7.08496H7.27105" stroke="#666666" stroke-width="2" stroke-linecap="round"/>
<path d="M5.13574 9.22021L5.13574 4.94917" stroke="#666666" stroke-width="2" stroke-linecap="round"/>
</svg>
