<svg width="20" height="20" viewBox="0 0 20 20" fill="none" xmlns="http://www.w3.org/2000/svg">
<path d="M11 3H5.4C5.0287 3 4.6726 3.1475 4.41005 3.41005C4.1475 3.6726 4 4.0287 4 4.4V15.6C4 15.9713 4.1475 16.3274 4.41005 16.5899C4.6726 16.8525 5.0287 17 5.4 17H13.8C14.1713 17 14.5274 16.8525 14.7899 16.5899C15.0525 16.3274 15.2 15.9713 15.2 15.6V7.2L11 3Z" stroke="#666666" stroke-width="2" stroke-linecap="round" stroke-linejoin="round"/>
<path d="M10.999 3V7.2H15.199" stroke="#666666" stroke-width="2" stroke-linecap="round" stroke-linejoin="round"/>
<path d="M12.3988 10.7002H6.79883" stroke="#666666" stroke-width="2" stroke-linecap="round" stroke-linejoin="round"/>
<path d="M12.3988 13.5H6.79883" stroke="#666666" stroke-width="2" stroke-linecap="round" stroke-linejoin="round"/>
<path d="M8.19883 7.8999H7.49883H6.79883" stroke="#666666" stroke-width="2" stroke-linecap="round" stroke-linejoin="round"/>
</svg>
