<svg width="20" height="20" viewBox="0 0 20 20" fill="none" xmlns="http://www.w3.org/2000/svg">
<path fill-rule="evenodd" clip-rule="evenodd" d="M15 10C15 12.7614 12.7614 15 10 15C7.23858 15 5 12.7614 5 10C5 7.23858 7.23858 5 10 5C12.7614 5 15 7.23858 15 10ZM17 10C17 13.866 13.866 17 10 17C6.13401 17 3 13.866 3 10C3 6.13401 6.13401 3 10 3C13.866 3 17 6.13401 17 10ZM10 11C9.44772 11 9 10.5523 9 10V7C9 6.44772 9.44772 6 10 6C10.5523 6 11 6.44772 11 7V10C11 10.5523 10.5523 11 10 11ZM10.9984 12.9992C10.9984 13.5511 10.5511 13.9984 9.99922 13.9984C9.44737 13.9984 9 13.5511 9 12.9992C9 12.4474 9.44737 12 9.99922 12C10.5511 12 10.9984 12.4474 10.9984 12.9992Z" fill="#660000"/>
</svg>
