<svg width="20" height="20" viewBox="0 0 20 20" fill="none" xmlns="http://www.w3.org/2000/svg">
<path d="M4 12.5453C4 12.0433 4.40708 11.6362 4.90909 11.6362C5.4111 11.6362 5.81818 12.0433 5.81818 12.5453V15.0908C5.81818 15.5928 5.4111 15.9999 4.90909 15.9999C4.40708 15.9999 4 15.5928 4 15.0908V12.5453Z" stroke="#666666" stroke-width="2"/>
<path d="M9.09082 4.90909C9.09082 4.40708 9.4979 4 9.99991 4C10.5019 4 10.909 4.40708 10.909 4.90909V15.0909C10.909 15.5929 10.5019 16 9.99991 16C9.4979 16 9.09082 15.5929 9.09082 15.0909V4.90909Z" stroke="#666666" stroke-width="2"/>
<path d="M14.1816 8.72745C14.1816 8.22544 14.5887 7.81836 15.0907 7.81836C15.5927 7.81836 15.9998 8.22544 15.9998 8.72745V15.0911C15.9998 15.5931 15.5927 16.0002 15.0907 16.0002C14.5887 16.0002 14.1816 15.5931 14.1816 15.0911V8.72745Z" stroke="#666666" stroke-width="2"/>
</svg>
