<svg width="20" height="20" viewBox="0 0 20 20" fill="none" xmlns="http://www.w3.org/2000/svg">
<path d="M10 17C13.866 17 17 13.866 17 10C17 6.13401 13.866 3 10 3C6.13401 3 3 6.13401 3 10C3 13.866 6.13401 17 10 17Z" stroke="#666666" stroke-width="2" stroke-linecap="round" stroke-linejoin="round"/>
<path d="M7.96289 7.9002C8.12746 7.43237 8.4523 7.03788 8.87986 6.7866C9.30742 6.53531 9.81012 6.44346 10.2989 6.5273C10.7877 6.61114 11.2311 6.86527 11.5504 7.24467C11.8698 7.62408 12.0446 8.10427 12.0439 8.6002C12.0439 10.0002 9.94389 10.7002 9.94389 10.7002" stroke="#666666" stroke-width="2" stroke-linecap="round" stroke-linejoin="round"/>
<path d="M10 12.7998V13.4998" stroke="#666666" stroke-width="2" stroke-linecap="round" stroke-linejoin="round"/>
</svg>
