<svg width="20" height="20" viewBox="0 0 20 20" fill="none" xmlns="http://www.w3.org/2000/svg">
<path d="M16.7663 4.23375C16.3753 3.84261 15.9111 3.53234 15.4002 3.32065C14.8893 3.10896 14.3417 3 13.7887 3C13.2357 3 12.6881 3.10896 12.1772 3.32065C11.6663 3.53234 11.2021 3.84261 10.8112 4.23375L9.9998 5.04511L9.18843 4.23375C8.39874 3.44406 7.32768 3.00041 6.21089 3.00041C5.09409 3.00041 4.02303 3.44406 3.23334 4.23375C2.44365 5.02344 2 6.0945 2 7.2113C2 8.32809 2.44365 9.39915 3.23334 10.1888L4.0447 11.0002L9.9998 16.9553L15.9549 11.0002L16.7663 10.1888C17.1574 9.79789 17.4677 9.33371 17.6794 8.82281C17.891 8.31191 18 7.76431 18 7.2113C18 6.65828 17.891 6.11068 17.6794 5.59978C17.4677 5.08888 17.1574 4.6247 16.7663 4.23375V4.23375Z" stroke="#666666" stroke-width="2" stroke-linecap="round" stroke-linejoin="round"/>
</svg>
