<svg width="20" height="20" viewBox="0 0 20 20" fill="none" xmlns="http://www.w3.org/2000/svg">
<path d="M8.5918 10.697C8.89412 11.1012 9.27984 11.4356 9.72278 11.6776C10.1657 11.9196 10.6555 12.0635 11.159 12.0996C11.6624 12.1356 12.1677 12.063 12.6406 11.8866C13.1135 11.7102 13.543 11.4341 13.8998 11.0772L16.0118 8.96522C16.6529 8.30136 17.0077 7.41222 16.9997 6.48932C16.9917 5.56641 16.6215 4.68357 15.9689 4.03096C15.3163 3.37834 14.4334 3.00815 13.5105 3.00013C12.5876 2.99211 11.6985 3.3469 11.0346 3.98808L9.82376 5.19188" stroke="#666666" stroke-width="2" stroke-linecap="round" stroke-linejoin="round"/>
<path d="M11.408 9.289C11.1057 8.88482 10.72 8.55039 10.2771 8.3084C9.83411 8.0664 9.34431 7.92249 8.84086 7.88643C8.33741 7.85038 7.8321 7.92302 7.3592 8.09943C6.88629 8.27583 6.45686 8.55188 6.10002 8.90885L3.98808 11.0208C3.3469 11.6847 2.99211 12.5738 3.00013 13.4967C3.00815 14.4196 3.37834 15.3024 4.03096 15.9551C4.68357 16.6077 5.56641 16.9779 6.48932 16.9859C7.41222 16.9939 8.30136 16.6391 8.96522 15.9979L10.169 14.7941" stroke="#666666" stroke-width="2" stroke-linecap="round" stroke-linejoin="round"/>
</svg>
