<svg width="20" height="20" viewBox="0 0 20 20" fill="none" xmlns="http://www.w3.org/2000/svg">
<path d="M10.4762 6.04762C11.0285 6.04762 11.4762 5.5999 11.4762 5.04762C11.4762 4.49533 11.0285 4.04762 10.4762 4.04762V6.04762ZM8.80952 5.04762V3H6.80952V5.04762H8.80952ZM8.80952 3H11.381V1H8.80952V3ZM11.381 3V4.04762H13.381V3H11.381ZM13.381 6.04762H15.1905V4.04762H13.381V6.04762ZM15.1905 6.04762V6.33333H17.1905V6.04762H15.1905ZM15.1905 6.33333H5V8.33333H15.1905V6.33333ZM5 6.33333V6.04762H3V6.33333H5ZM5 6.04762H7.61905V4.04762H5V6.04762ZM7.61905 6.04762H10.4762V4.04762H7.61905V6.04762ZM5 6.04762V6.04762V4.04762C3.89543 4.04762 3 4.94305 3 6.04762H5ZM5 6.33333H5H3C3 7.4379 3.89543 8.33333 5 8.33333V6.33333ZM15.1905 6.33333V6.33333V8.33333C16.295 8.33333 17.1905 7.4379 17.1905 6.33333H15.1905ZM15.1905 6.04762H17.1905C17.1905 4.94305 16.295 4.04762 15.1905 4.04762V6.04762ZM11.381 4.04762C11.381 5.15219 12.2764 6.04762 13.381 6.04762V4.04762V4.04762H11.381ZM11.381 3H13.381C13.381 1.89543 12.4855 1 11.381 1V3ZM8.80952 3V3V1C7.70496 1 6.80952 1.89543 6.80952 3H8.80952Z" fill="#666666"/>
<path d="M15.8094 7.71436C15.8094 7.71436 15.8094 11.5239 15.8094 13.0477C15.8094 14.177 14.9725 16.3523 14.5392 17.4031C14.3885 17.7684 14.0309 18.0001 13.6357 18.0001H6.5817C6.1728 18.0001 5.80539 17.7517 5.65995 17.3696C5.22924 16.2378 4.38086 13.9004 4.38086 13.0477C4.38086 11.9048 4.38086 7.71436 4.38086 7.71436M10.0951 14.9144V10.381M12.7999 14.9144C12.7999 14.9144 13.1809 14.1905 13.1809 13.0477C13.1809 11.9048 13.1809 10.381 13.1809 10.381M7.59961 14.9144C7.59961 14.9144 7.21866 14.1905 7.21866 13.0477C7.21866 11.9048 7.21866 10.381 7.21866 10.381" stroke="#666666" stroke-width="2" stroke-linecap="round"/>
</svg>
