<svg width="20" height="20" viewBox="0 0 20 20" fill="none" xmlns="http://www.w3.org/2000/svg">
<path d="M15.4545 8.72727C15.4545 13.1818 9.72727 17 9.72727 17C9.72727 17 4 13.1818 4 8.72727C4 7.20831 4.60341 5.75155 5.67748 4.67748C6.75155 3.60341 8.20831 3 9.72727 3C11.2462 3 12.703 3.60341 13.7771 4.67748C14.8511 5.75155 15.4545 7.20831 15.4545 8.72727Z" stroke="#666666" stroke-width="2" stroke-linecap="round" stroke-linejoin="round"/>
<path d="M9.72745 10.6365C10.7818 10.6365 11.6365 9.78181 11.6365 8.72745C11.6365 7.67309 10.7818 6.81836 9.72745 6.81836C8.67309 6.81836 7.81836 7.67309 7.81836 8.72745C7.81836 9.78181 8.67309 10.6365 9.72745 10.6365Z" stroke="#666666" stroke-linecap="round" stroke-linejoin="round"/>
</svg>
