<svg width="10" height="10" viewBox="0 0 10 10" fill="none" xmlns="http://www.w3.org/2000/svg">
<path d="M7.33333 4.1499H2.66667C2.29848 4.1499 2 4.4633 2 4.8499V7.2999C2 7.6865 2.29848 7.9999 2.66667 7.9999H7.33333C7.70152 7.9999 8 7.6865 8 7.2999V4.8499C8 4.4633 7.70152 4.1499 7.33333 4.1499Z" stroke="#666666" stroke-linecap="round" stroke-linejoin="round"/>
<path d="M3.33301 4.15V2.75C3.33301 2.28587 3.5086 1.84075 3.82116 1.51256C4.13372 1.18437 4.55765 1 4.99967 1C5.4417 1 5.86562 1.18437 6.17819 1.51256C6.49075 1.84075 6.66634 2.28587 6.66634 2.75V4.15" stroke="#666666" stroke-linecap="round" stroke-linejoin="round"/>
</svg>
