<svg width="20" height="20" viewBox="0 0 20 20" fill="none" xmlns="http://www.w3.org/2000/svg">
<path d="M14.6667 9.2998H5.33333C4.59695 9.2998 4 9.92661 4 10.6998V15.5998C4 16.373 4.59695 16.9998 5.33333 16.9998H14.6667C15.403 16.9998 16 16.373 16 15.5998V10.6998C16 9.92661 15.403 9.2998 14.6667 9.2998Z" stroke="#666666" stroke-width="2" stroke-linecap="round" stroke-linejoin="round"/>
<path d="M6.66699 9.3V6.5C6.66699 5.57174 7.01818 4.6815 7.6433 4.02513C8.26842 3.36875 9.11627 3 10.0003 3C10.8844 3 11.7322 3.36875 12.3573 4.02513C12.9825 4.6815 13.3337 5.57174 13.3337 6.5V9.3" stroke="#666666" stroke-width="2" stroke-linecap="round" stroke-linejoin="round"/>
</svg>
