<svg width="20" height="20" viewBox="0 0 20 20" fill="none" xmlns="http://www.w3.org/2000/svg">
<path d="M17 14.5556C17 14.9386 16.8525 15.306 16.5899 15.5769C16.3274 15.8478 15.9713 16 15.6 16H4.4C4.0287 16 3.6726 15.8478 3.41005 15.5769C3.1475 15.306 3 14.9386 3 14.5556V4.44444C3 4.06135 3.1475 3.69395 3.41005 3.42307C3.6726 3.15218 4.0287 3 4.4 3H7.9L9.3 5.16667H15.6C15.9713 5.16667 16.3274 5.31885 16.5899 5.58973C16.8525 5.86062 17 6.22802 17 6.61111V14.5556Z" stroke="#666666" stroke-width="2" stroke-linecap="round" stroke-linejoin="round"/>
<path d="M7.90039 10.9443H12.1004" stroke="#666666" stroke-width="2" stroke-linecap="round" stroke-linejoin="round"/>
</svg>
