<svg width="30" height="30" viewBox="0 0 30 30" fill="none" xmlns="http://www.w3.org/2000/svg">
<path d="M21.9006 5.31897C21.459 4.98728 20.8321 5.07637 20.5004 5.51796C20.1687 5.95955 20.2578 6.58642 20.6994 6.9181L21.9006 5.31897ZM12.1496 5.45405C12.6766 5.28856 12.9695 4.72726 12.804 4.20035C12.6386 3.67344 12.0773 3.38046 11.5504 3.54595L12.1496 5.45405ZM24.5 14.5193C24.5 19.766 20.2467 24.0193 15 24.0193V26.0193C21.3513 26.0193 26.5 20.8706 26.5 14.5193H24.5ZM15 24.0193C9.75329 24.0193 5.5 19.766 5.5 14.5193H3.5C3.5 20.8706 8.64873 26.0193 15 26.0193V24.0193ZM20.6994 6.9181C23.0091 8.65299 24.5 11.4119 24.5 14.5193H26.5C26.5 10.7563 24.6915 7.41535 21.9006 5.31897L20.6994 6.9181ZM5.5 14.5193C5.5 10.2671 8.29449 6.66488 12.1496 5.45405L11.5504 3.54595C6.88558 5.01107 3.5 9.36851 3.5 14.5193H5.5Z" fill="#E6E6E6"/>
<path d="M8.25 3L12 4.5L11.25 8.25" stroke="#E6E6E6" stroke-width="2" stroke-linecap="round" stroke-linejoin="round"/>
</svg>
