<svg width="20" height="20" viewBox="0 0 20 20" fill="none" xmlns="http://www.w3.org/2000/svg">
<path d="M14.8006 3.27946C14.359 2.94777 13.7321 3.03686 13.4004 3.47845C13.0687 3.92004 13.1578 4.5469 13.5994 4.87859L14.8006 3.27946ZM8.19965 3.95405C8.72656 3.78856 9.01954 3.22726 8.85405 2.70035C8.68856 2.17344 8.12726 1.88046 7.60035 2.04595L8.19965 3.95405ZM16 9.67954C16 12.9932 13.3137 15.6795 10 15.6795V17.6795C14.4183 17.6795 18 14.0978 18 9.67954H16ZM10 15.6795C6.68629 15.6795 4 12.9932 4 9.67954H2C2 14.0978 5.58172 17.6795 10 17.6795V15.6795ZM13.5994 4.87859C15.059 5.97493 16 7.7172 16 9.67954H18C18 7.06158 16.7414 4.73729 14.8006 3.27946L13.5994 4.87859ZM4 9.67954C4 6.99446 5.76448 4.71889 8.19965 3.95405L7.60035 2.04595C4.35557 3.06508 2 6.09591 2 9.67954H4Z" fill="#666666"/>
<path d="M5.5 2L8 3L7.5 5.5" stroke="#666666" stroke-width="2" stroke-linecap="round" stroke-linejoin="round"/>
</svg>
