<svg width="20" height="20" viewBox="0 0 20 20" fill="none" xmlns="http://www.w3.org/2000/svg">
<path d="M8.29395 3.82373V16.1767" stroke="#666666" stroke-width="2" stroke-linecap="round" stroke-linejoin="round"/>
<path d="M10.7646 3.82373V16.1767" stroke="#666666" stroke-width="2" stroke-linecap="round" stroke-linejoin="round"/>
<path d="M12.6174 5.4707H7.98501C7.41167 5.4707 6.86182 5.70931 6.45641 6.13402C6.051 6.55874 5.82324 7.13477 5.82324 7.73541C5.82324 8.33605 6.051 8.91208 6.45641 9.3368C6.86182 9.76151 7.41167 10.0001 7.98501 10.0001H11.0732C11.6466 10.0001 12.1964 10.2387 12.6018 10.6634C13.0073 11.0881 13.235 11.6642 13.235 12.2648C13.235 12.8655 13.0073 13.4415 12.6018 13.8662C12.1964 14.2909 11.6466 14.5295 11.0732 14.5295H5.82324" stroke="#666666" stroke-width="2" stroke-linecap="round" stroke-linejoin="round"/>
</svg>
