<svg width="20" height="20" viewBox="0 0 20 20" fill="none" xmlns="http://www.w3.org/2000/svg">
<path d="M9.99991 11.909C11.0543 11.909 11.909 11.0543 11.909 9.99991C11.909 8.94555 11.0543 8.09082 9.99991 8.09082C8.94555 8.09082 8.09082 8.94555 8.09082 9.99991C8.09082 11.0543 8.94555 11.909 9.99991 11.909Z" stroke="#666666" stroke-width="2" stroke-linecap="round" stroke-linejoin="round"/>
<path d="M14.7091 11.9091C14.6244 12.101 14.5991 12.3139 14.6365 12.5204C14.674 12.7268 14.7724 12.9173 14.9191 13.0673L14.9573 13.1055C15.0756 13.2237 15.1695 13.364 15.2335 13.5185C15.2976 13.673 15.3305 13.8387 15.3305 14.0059C15.3305 14.1732 15.2976 14.3388 15.2335 14.4933C15.1695 14.6478 15.0756 14.7882 14.9573 14.9064C14.8391 15.0247 14.6987 15.1186 14.5442 15.1826C14.3897 15.2467 14.2241 15.2796 14.0568 15.2796C13.8896 15.2796 13.7239 15.2467 13.5694 15.1826C13.4149 15.1186 13.2746 15.0247 13.1564 14.9064L13.1182 14.8682C12.9682 14.7215 12.7777 14.6231 12.5713 14.5856C12.3649 14.5482 12.1519 14.5735 11.96 14.6582C11.7718 14.7388 11.6113 14.8728 11.4982 15.0435C11.3851 15.2143 11.3245 15.4143 11.3236 15.6191V15.7273C11.3236 16.0648 11.1895 16.3885 10.9509 16.6272C10.7122 16.8659 10.3885 17 10.0509 17C9.71336 17 9.38964 16.8659 9.15096 16.6272C8.91227 16.3885 8.77818 16.0648 8.77818 15.7273V15.67C8.77325 15.4594 8.70508 15.2551 8.58251 15.0837C8.45994 14.9123 8.28865 14.7818 8.09091 14.7091C7.89897 14.6244 7.68606 14.5991 7.47963 14.6365C7.27319 14.674 7.0827 14.7724 6.93273 14.9191L6.89455 14.9573C6.77634 15.0756 6.63598 15.1695 6.48147 15.2335C6.32696 15.2976 6.16135 15.3305 5.99409 15.3305C5.82683 15.3305 5.66122 15.2976 5.50671 15.2335C5.35221 15.1695 5.21184 15.0756 5.09364 14.9573C4.9753 14.8391 4.88143 14.6987 4.81738 14.5442C4.75333 14.3897 4.72036 14.2241 4.72036 14.0568C4.72036 13.8896 4.75333 13.7239 4.81738 13.5694C4.88143 13.4149 4.9753 13.2746 5.09364 13.1564L5.13182 13.1182C5.27852 12.9682 5.37694 12.7777 5.41437 12.5713C5.4518 12.3649 5.42653 12.1519 5.34182 11.96C5.26115 11.7718 5.12721 11.6113 4.95648 11.4982C4.78575 11.3851 4.58568 11.3245 4.38091 11.3236H4.27273C3.93518 11.3236 3.61146 11.1895 3.37277 10.9509C3.13409 10.7122 3 10.3885 3 10.0509C3 9.71336 3.13409 9.38964 3.37277 9.15096C3.61146 8.91227 3.93518 8.77818 4.27273 8.77818H4.33C4.54063 8.77325 4.74491 8.70508 4.91628 8.58251C5.08765 8.45994 5.21818 8.28865 5.29091 8.09091C5.37562 7.89897 5.40089 7.68606 5.36346 7.47963C5.32603 7.27319 5.22761 7.0827 5.08091 6.93273L5.04273 6.89455C4.92439 6.77634 4.83052 6.63598 4.76647 6.48147C4.70242 6.32696 4.66945 6.16135 4.66945 5.99409C4.66945 5.82683 4.70242 5.66122 4.76647 5.50671C4.83052 5.35221 4.92439 5.21184 5.04273 5.09364C5.16093 4.9753 5.3013 4.88143 5.4558 4.81738C5.61031 4.75333 5.77593 4.72036 5.94318 4.72036C6.11044 4.72036 6.27605 4.75333 6.43056 4.81738C6.58507 4.88143 6.72543 4.9753 6.84364 5.09364L6.88182 5.13182C7.0318 5.27852 7.22228 5.37694 7.42872 5.41437C7.63515 5.4518 7.84806 5.42653 8.04 5.34182H8.09091C8.27913 5.26115 8.43965 5.12721 8.55271 4.95648C8.66578 4.78575 8.72646 4.58568 8.72727 4.38091V4.27273C8.72727 3.93518 8.86136 3.61146 9.10005 3.37277C9.33873 3.13409 9.66245 3 10 3C10.3375 3 10.6613 3.13409 10.9 3.37277C11.1386 3.61146 11.2727 3.93518 11.2727 4.27273V4.33C11.2735 4.53477 11.3342 4.73484 11.4473 4.90557C11.5604 5.0763 11.7209 5.21024 11.9091 5.29091C12.101 5.37562 12.3139 5.40089 12.5204 5.36346C12.7268 5.32603 12.9173 5.22761 13.0673 5.08091L13.1055 5.04273C13.2237 4.92439 13.364 4.83052 13.5185 4.76647C13.673 4.70242 13.8387 4.66945 14.0059 4.66945C14.1732 4.66945 14.3388 4.70242 14.4933 4.76647C14.6478 4.83052 14.7882 4.92439 14.9064 5.04273C15.0247 5.16093 15.1186 5.3013 15.1826 5.4558C15.2467 5.61031 15.2796 5.77593 15.2796 5.94318C15.2796 6.11044 15.2467 6.27605 15.1826 6.43056C15.1186 6.58507 15.0247 6.72543 14.9064 6.84364L14.8682 6.88182C14.7215 7.0318 14.6231 7.22228 14.5856 7.42872C14.5482 7.63515 14.5735 7.84806 14.6582 8.04V8.09091C14.7388 8.27913 14.8728 8.43965 15.0435 8.55271C15.2143 8.66578 15.4143 8.72646 15.6191 8.72727H15.7273C16.0648 8.72727 16.3885 8.86136 16.6272 9.10005C16.8659 9.33873 17 9.66245 17 10C17 10.3375 16.8659 10.6613 16.6272 10.9C16.3885 11.1386 16.0648 11.2727 15.7273 11.2727H15.67C15.4652 11.2735 15.2652 11.3342 15.0944 11.4473C14.9237 11.5604 14.7898 11.7209 14.7091 11.9091V11.9091Z" stroke="#666666" stroke-width="2" stroke-linecap="round" stroke-linejoin="round"/>
</svg>
