<svg width="20" height="20" viewBox="0 0 20 20" fill="none" xmlns="http://www.w3.org/2000/svg">
<path d="M9.99999 5.8C9.82241 5.8 9.65206 5.72945 9.52653 5.60388C9.401 5.47833 9.33044 5.30802 9.33044 5.13043V3.66957C9.33044 3.49199 9.401 3.32168 9.52653 3.19611C9.65206 3.07055 9.82241 3 9.99999 3C10.1776 3 10.3479 3.07055 10.4735 3.19611C10.599 3.32168 10.6695 3.49199 10.6695 3.66957V5.13043C10.6695 5.30802 10.599 5.47833 10.4735 5.60388C10.3479 5.72945 10.1776 5.8 9.99999 5.8ZM9.99999 17C9.82241 17 9.65206 16.9294 9.52653 16.8038C9.401 16.6783 9.33044 16.508 9.33044 16.3304V14.8695C9.33044 14.692 9.401 14.5216 9.52653 14.3961C9.65206 14.2706 9.82241 14.2 9.99999 14.2C10.1776 14.2 10.3479 14.2706 10.4735 14.3961C10.599 14.5216 10.6695 14.692 10.6695 14.8695V16.3304C10.6695 16.508 10.599 16.6783 10.4735 16.8038C10.3479 16.9294 10.1776 17 9.99999 17ZM13.4434 7.22617C13.311 7.22614 13.1815 7.18688 13.0714 7.11332C12.9614 7.03979 12.8756 6.93524 12.8249 6.81293C12.7742 6.69061 12.7609 6.55603 12.7867 6.42616C12.8125 6.2963 12.8762 6.17699 12.9698 6.08335L14.0028 5.05039C14.1289 4.92755 14.2983 4.85933 14.4744 4.86049C14.6504 4.86165 14.8189 4.9321 14.9434 5.05658C15.0679 5.18107 15.1383 5.34959 15.1395 5.52563C15.1407 5.70167 15.0724 5.87109 14.9496 5.99722L13.9166 7.03017C13.8546 7.0924 13.7808 7.14175 13.6995 7.17537C13.6183 7.20901 13.5313 7.22626 13.4434 7.22617ZM5.52365 15.1459C5.39123 15.1459 5.26176 15.1066 5.15166 15.033C5.04156 14.9594 4.95575 14.8548 4.90509 14.7324C4.85443 14.6101 4.84119 14.4754 4.86706 14.3456C4.89292 14.2157 4.95672 14.0964 5.05039 14.0028L6.08335 12.9698C6.14522 12.9063 6.21908 12.8557 6.30065 12.8209C6.38224 12.7862 6.46992 12.768 6.55858 12.7675C6.64724 12.7668 6.73516 12.7839 6.81719 12.8176C6.89921 12.8512 6.97374 12.9008 7.03644 12.9635C7.09914 13.0263 7.14877 13.1008 7.18243 13.1828C7.21609 13.2648 7.23314 13.3527 7.23253 13.4414C7.23195 13.5301 7.21378 13.6178 7.17903 13.6993C7.1443 13.7809 7.09369 13.8548 7.03017 13.9166L5.99722 14.9496C5.9351 15.0119 5.86129 15.0613 5.78003 15.095C5.69874 15.1287 5.61164 15.146 5.52365 15.1459ZM16.3304 10.6695H14.8695C14.692 10.6695 14.5216 10.599 14.3961 10.4735C14.2706 10.3479 14.2 10.1776 14.2 9.99999C14.2 9.82241 14.2706 9.65206 14.3961 9.52653C14.5216 9.401 14.692 9.33044 14.8695 9.33044H16.3304C16.508 9.33044 16.6783 9.401 16.8038 9.52653C16.9294 9.65206 17 9.82241 17 9.99999C17 10.1776 16.9294 10.3479 16.8038 10.4735C16.6783 10.599 16.508 10.6695 16.3304 10.6695ZM5.13043 10.6695H3.66957C3.49199 10.6695 3.32168 10.599 3.19611 10.4735C3.07055 10.3479 3 10.1776 3 9.99999C3 9.82241 3.07055 9.65206 3.19611 9.52653C3.32168 9.401 3.49199 9.33044 3.66957 9.33044H5.13043C5.30802 9.33044 5.47833 9.401 5.60388 9.52653C5.72945 9.65206 5.8 9.82241 5.8 9.99999C5.8 10.1776 5.72945 10.3479 5.60388 10.4735C5.47833 10.599 5.30802 10.6695 5.13043 10.6695ZM14.4763 15.1459C14.3884 15.146 14.3012 15.1287 14.2199 15.095C14.1387 15.0613 14.0649 15.0119 14.0028 14.9496L12.9698 13.9166C12.847 13.7905 12.7787 13.6211 12.7799 13.4451C12.781 13.269 12.8515 13.1005 12.976 12.976C13.1005 12.8515 13.269 12.781 13.4451 12.7799C13.6211 12.7787 13.7905 12.847 13.9166 12.9698L14.9496 14.0028C15.0433 14.0964 15.1071 14.2157 15.133 14.3456C15.1588 14.4754 15.1455 14.6101 15.0949 14.7324C15.0443 14.8548 14.9584 14.9594 14.8484 15.033C14.7382 15.1066 14.6088 15.1459 14.4763 15.1459ZM6.55661 7.22617C6.46868 7.22635 6.3816 7.20912 6.30037 7.17547C6.21914 7.14183 6.1454 7.09244 6.08335 7.03017L5.05039 5.99722C4.92755 5.87109 4.85933 5.70167 4.86049 5.52563C4.86165 5.34959 4.9321 5.18107 5.05658 5.05658C5.18107 4.9321 5.34959 4.86165 5.52563 4.86049C5.70167 4.85933 5.87109 4.92755 5.99722 5.05039L7.03017 6.08335C7.12376 6.17699 7.18746 6.2963 7.21326 6.42616C7.23904 6.55603 7.22577 6.69061 7.17507 6.81293C7.12439 6.93524 7.0386 7.03979 6.92852 7.11332C6.81843 7.18688 6.689 7.22614 6.55661 7.22617ZM9.99999 13.1044C9.38597 13.1044 8.78586 12.9223 8.27532 12.5812C7.7648 12.24 7.3669 11.7552 7.13194 11.188C6.89699 10.6207 6.83551 9.99656 6.9553 9.39439C7.07509 8.79222 7.37073 8.23903 7.80488 7.80488C8.23903 7.37073 8.79222 7.07509 9.39439 6.9553C9.99656 6.83551 10.6207 6.89699 11.188 7.13194C11.7552 7.3669 12.24 7.7648 12.5812 8.27532C12.9223 8.78586 13.1044 9.38597 13.1044 9.99999C13.1034 10.823 12.776 11.612 12.194 12.194C11.612 12.776 10.823 13.1034 9.99999 13.1044Z" fill="#666666"/>
</svg>
