<svg width="20" height="20" viewBox="0 0 20 20" fill="none" xmlns="http://www.w3.org/2000/svg">
<mask id="path-1-inside-1_83_2748" fill="white">
<path d="M8 8C6.8955 8 6 8.8955 6 10C6 11.1045 6.8955 12 8 12C9.1045 12 10 11.1045 10 10C10 8.8955 9.1045 8 8 8Z"/>
</mask>
<path d="M8 6C5.79093 6 4 7.79093 4 10H8V6ZM4 10C4 12.2091 5.79093 14 8 14V10H4ZM8 14C10.2091 14 12 12.2091 12 10H8V14ZM12 10C12 7.79093 10.2091 6 8 6V10H12Z" fill="#666666" mask="url(#path-1-inside-1_83_2748)"/>
<rect x="4" y="6" width="12" height="8" rx="4" stroke="#666666" stroke-width="2"/>
</svg>
