<svg width="40" height="40" viewBox="0 0 40 40" fill="none" xmlns="http://www.w3.org/2000/svg">
<mask id="mask0_365_34339" style="mask-type:alpha" maskUnits="userSpaceOnUse" x="11" y="8" width="18" height="20">
<path d="M27.9414 16.2744L20.6492 10.0538C20.2753 9.7349 19.7251 9.7349 19.3512 10.0538L12.0591 16.2744" stroke="#E6E6E6" stroke-width="2" stroke-linecap="round"/>
<path d="M20 26.6611L20 9.72565" stroke="#E6E6E6" stroke-width="2" stroke-linecap="round"/>
</mask>
<g mask="url(#mask0_365_34339)">
<path d="M27.9414 16.2744L20.6492 10.0538C20.2753 9.7349 19.7251 9.7349 19.3512 10.0538L12.0591 16.2744" stroke="#40FF40" stroke-width="2" stroke-linecap="round"/>
<path d="M27.9414 16.2744L20.6492 10.0538C20.2753 9.7349 19.7251 9.7349 19.3512 10.0538L12.0591 16.2744" stroke="#E6E6E6" stroke-width="2" stroke-linecap="round"/>
<path d="M20 26.6611L20 9.72565" stroke="#E6E6E6" stroke-width="2" stroke-linecap="round"/>
<path d="M20 27L20 26" stroke="#40FF40" stroke-width="2" stroke-linecap="round"/>
</g>
<path d="M11 30.5H29" stroke="#E6E6E6" stroke-width="2" stroke-linecap="round"/>
<circle cx="20" cy="20" r="19" stroke="#E6E6E6" stroke-width="2"/>
</svg>
